<svg width="40" height="40" viewBox="0 0 40 40" fill="none" xmlns="http://www.w3.org/2000/svg">
<circle cx="20" cy="20" r="20" fill="white"/>
<path d="M18.1743 28.8545C17.018 28.8545 16.0575 28.7613 15.2928 28.5748C14.5468 28.3696 13.95 28.0246 13.5024 27.5397C13.0548 27.0361 12.7377 26.374 12.5512 25.5534C12.3647 24.7328 12.2715 23.6977 12.2715 22.4481V12.3769C12.2715 11.3138 12.6072 10.5305 13.2786 10.0269C13.95 9.52339 14.9851 9.27161 16.3839 9.27161C17.7267 9.27161 18.7059 9.52339 19.3213 10.0269C19.9368 10.5119 20.2445 11.2952 20.2445 12.3769V21.5809H26.623C27.313 21.5809 27.8632 21.6928 28.2735 21.9166C28.6838 22.1217 28.9916 22.4015 29.1967 22.7558C29.4205 23.1102 29.5604 23.5112 29.6163 23.9588C29.6909 24.4064 29.7282 24.8633 29.7282 25.3296C29.7282 26.5419 29.4765 27.4371 28.9729 28.0152C28.488 28.5748 27.714 28.8545 26.6509 28.8545H18.1743ZM16.3839 9.60731C15.5633 9.60731 14.9012 9.69124 14.3976 9.85909C13.8941 10.0083 13.5117 10.2135 13.2506 10.4746C12.9895 10.7357 12.8123 11.0341 12.7191 11.3698C12.6445 11.7055 12.6072 12.0412 12.6072 12.3769V22.4481C12.6072 23.6417 12.6911 24.6302 12.859 25.4135C13.0268 26.1968 13.3252 26.8216 13.7542 27.2879C14.1831 27.7355 14.752 28.0525 15.4607 28.2391C16.1694 28.4256 17.074 28.5188 18.1743 28.5188H26.6509C27.6021 28.5188 28.2922 28.267 28.7211 27.7635C29.1501 27.2599 29.3646 26.4486 29.3646 25.3296C29.3646 24.826 29.3273 24.3691 29.2527 23.9588C29.1781 23.5298 29.0382 23.1661 28.833 22.8677C28.6465 22.5693 28.3668 22.3455 27.9938 22.1963C27.6394 22.0285 27.1825 21.9445 26.623 21.9445H20.2445C20.2445 22.5041 20.2259 23.0449 20.1886 23.5671C20.1699 24.0707 19.9554 24.5183 19.5451 24.91C19.34 25.1151 19.0975 25.2736 18.8178 25.3855C18.5567 25.4788 18.2862 25.5254 18.0065 25.5254C17.7454 25.5068 17.4936 25.4508 17.2511 25.3576C17.0087 25.2643 16.8035 25.1244 16.6357 24.9379C16.3932 24.6582 16.244 24.3318 16.1881 23.9588C16.1508 23.5671 16.216 23.2034 16.3839 22.8677C16.5517 22.5134 16.8222 22.215 17.1952 21.9725C17.5868 21.7114 18.0904 21.5809 18.7059 21.5809H19.8808V12.3769C19.8808 12.0225 19.8435 11.6775 19.7689 11.3418C19.6943 11.0061 19.5358 10.717 19.2934 10.4746C19.0509 10.2135 18.6965 10.0083 18.2303 9.85909C17.764 9.69124 17.1486 9.60731 16.3839 9.60731ZM18.7059 21.9445C18.165 21.9445 17.7267 22.0471 17.391 22.2523C17.074 22.4574 16.8408 22.7092 16.6916 23.0076C16.5611 23.2874 16.5144 23.5858 16.5517 23.9028C16.589 24.2012 16.7103 24.4623 16.9154 24.6862C17.046 24.8354 17.2045 24.9566 17.391 25.0498C17.5962 25.1244 17.8107 25.1617 18.0345 25.1617C18.2583 25.1617 18.4821 25.1244 18.7059 25.0498C18.9297 24.9566 19.1255 24.826 19.2934 24.6582C19.6477 24.3038 19.8342 23.8935 19.8529 23.4273C19.8715 22.961 19.8808 22.4668 19.8808 21.9445H18.7059Z" fill="#403D58"/>
<path fill-rule="evenodd" clip-rule="evenodd" d="M14.9737 29.8058L14.9558 29.8009C14.0208 29.5437 13.203 29.09 12.5682 28.4022L12.5601 28.3934L12.5521 28.3845C11.9308 27.6855 11.5337 26.8137 11.3114 25.8352C11.0964 24.8893 11 23.7515 11 22.4481V12.3769C11 11.0314 11.4403 9.81624 12.5158 9.00966C13.5112 8.26308 14.877 8 16.384 8C17.8309 8 19.1649 8.26114 20.1176 9.03538C21.1375 9.84447 21.5163 11.0669 21.5163 12.3769V20.3093H26.6231C27.4236 20.3093 28.2013 20.4348 28.862 20.7891C29.4509 21.0876 29.9444 21.5195 30.2846 22.097C30.6033 22.6082 30.7962 23.1736 30.8748 23.7743C30.9586 24.2849 31 24.8036 31 25.3296C31 26.6791 30.726 27.9379 29.933 28.8493C29.116 29.791 27.9171 30.1261 26.6511 30.1261H18.1745C16.9593 30.1261 15.8892 30.0291 14.9917 29.8102L14.9737 29.8058ZM13.0238 10.2476C12.7429 10.5281 12.5407 10.8742 12.4171 11.2859C12.4156 11.2911 12.414 11.2964 12.4125 11.3016C12.3186 11.6209 12.2716 11.9794 12.2716 12.3769V22.4481C12.2716 23.6621 12.3596 24.6737 12.5357 25.4828C12.5408 25.5065 12.5461 25.5301 12.5514 25.5534C12.7365 26.368 13.0503 27.0264 13.4927 27.5286C13.4943 27.5304 13.4959 27.5322 13.4975 27.534C13.4992 27.5359 13.5009 27.5378 13.5025 27.5397C13.9502 28.0246 14.547 28.3696 15.293 28.5748C15.3177 28.5808 15.3427 28.5867 15.3678 28.5926C16.12 28.7672 17.0555 28.8545 18.1745 28.8545H26.6511C27.7141 28.8545 28.4881 28.5748 28.973 28.0153C28.9792 28.0081 28.9854 28.001 28.9916 27.9937C29.4828 27.415 29.7284 26.5269 29.7284 25.3296C29.7284 24.8633 29.6911 24.4064 29.6165 23.9588C29.6139 23.9381 29.6111 23.9175 29.6082 23.897C29.608 23.8961 29.6079 23.8952 29.6078 23.8943C29.5468 23.4726 29.4098 23.0931 29.1968 22.7558C29.1805 22.7276 29.1634 22.6997 29.1457 22.6724C29.1428 22.6679 29.1399 22.6634 29.1369 22.6589C28.9336 22.3501 28.6458 22.1027 28.2737 21.9166C28.2353 21.8956 28.1956 21.8757 28.1548 21.8567C28.1478 21.8534 28.1407 21.8502 28.1336 21.847C27.741 21.6696 27.2375 21.5809 26.6231 21.5809H20.2447V12.3769C20.2447 11.963 20.1996 11.5927 20.1095 11.2662C19.9954 10.8527 19.809 10.5093 19.5504 10.236C19.5475 10.2328 19.5445 10.2297 19.5415 10.2266C19.4731 10.1552 19.3998 10.0887 19.3215 10.027C19.0624 9.81496 18.7388 9.64759 18.3508 9.52484C18.3467 9.52356 18.3427 9.52229 18.3386 9.52102C17.8072 9.35475 17.1556 9.27162 16.384 9.27162C15.5647 9.27162 14.8702 9.35799 14.3005 9.53075C14.2968 9.53186 14.2931 9.53298 14.2894 9.53411C13.8912 9.65596 13.5544 9.82025 13.2787 10.027C13.1876 10.0953 13.1026 10.1689 13.0238 10.2476ZM14.3978 9.85911C14.9013 9.69125 15.5634 9.60733 16.384 9.60733C17.1487 9.60733 17.7642 9.69125 18.2304 9.85911C18.5853 9.97266 18.8753 10.1186 19.1005 10.297C19.1022 10.2983 19.1039 10.2997 19.1056 10.301C19.1743 10.3558 19.2369 10.4137 19.2935 10.4746C19.5359 10.717 19.6945 11.0061 19.7691 11.3418C19.8437 11.6775 19.881 12.0226 19.881 12.3769V21.5809H18.706C18.0998 21.5809 17.6021 21.7075 17.2131 21.9609C17.2106 21.9625 17.2081 21.9641 17.2057 21.9657C17.2022 21.9679 17.1988 21.9702 17.1953 21.9725C16.8263 22.2124 16.5576 22.5071 16.3894 22.8565C16.3881 22.8592 16.3868 22.862 16.3855 22.8647C16.385 22.8657 16.3845 22.8667 16.384 22.8678C16.218 23.1997 16.1524 23.5591 16.187 23.9458C16.1871 23.9467 16.1872 23.9475 16.1872 23.9484C16.1875 23.9519 16.1879 23.9553 16.1882 23.9588C16.2439 24.33 16.3919 24.6551 16.6324 24.934C16.6335 24.9353 16.6347 24.9366 16.6358 24.9379C16.6366 24.9388 16.6373 24.9396 16.6381 24.9405C16.8028 25.1227 17.0033 25.2602 17.2396 25.353C17.2435 25.3546 17.2474 25.3561 17.2513 25.3576C17.2595 25.3607 17.2677 25.3638 17.2759 25.3669C17.5107 25.4546 17.7543 25.5074 18.0066 25.5254C18.0159 25.5254 18.0253 25.5254 18.0346 25.5253C18.3044 25.5223 18.5655 25.4757 18.8179 25.3856C18.8259 25.3824 18.8339 25.3791 18.8418 25.3758C19.1115 25.2645 19.346 25.1093 19.5453 24.91C19.9556 24.5183 20.1701 24.0707 20.1887 23.5671C20.1917 23.5252 20.1946 23.4832 20.1973 23.441C20.21 23.2474 20.2201 23.0512 20.2277 22.8525C20.239 22.5555 20.2447 22.2529 20.2447 21.9446H26.6231C27.1826 21.9446 27.6395 22.0285 27.9939 22.1963C28.0291 22.2104 28.0634 22.2251 28.0969 22.2405C28.1009 22.2424 28.1049 22.2442 28.1089 22.2461C28.4249 22.3936 28.6663 22.6008 28.8332 22.8678C28.8493 22.8912 28.8649 22.915 28.8802 22.9392C28.8827 22.9431 28.8852 22.9471 28.8877 22.9511C29.0633 23.2331 29.185 23.569 29.2528 23.9588C29.2555 23.9736 29.2581 23.9884 29.2607 24.0033C29.2615 24.0081 29.2624 24.0129 29.2632 24.0177C29.3309 24.4127 29.3647 24.85 29.3647 25.3296C29.3647 26.4486 29.1502 27.2599 28.7213 27.7635C28.716 27.7697 28.7106 27.7759 28.7052 27.782C28.7051 27.7822 28.7054 27.7818 28.7052 27.782C28.2752 28.2728 27.5901 28.5188 26.6511 28.5188H18.1745C17.0741 28.5188 16.1695 28.4256 15.4608 28.2391C15.4372 28.2329 15.4138 28.2265 15.3905 28.22C15.3871 28.219 15.3837 28.2181 15.3802 28.2171C14.7167 28.0304 14.1796 27.7256 13.7689 27.303C13.7673 27.3014 13.7657 27.2998 13.7642 27.2982C13.7609 27.2947 13.7576 27.2913 13.7543 27.2879C13.3376 26.8349 13.0441 26.2323 12.8738 25.4801C12.8688 25.4581 12.8639 25.4359 12.8591 25.4135C12.6913 24.6302 12.6073 23.6417 12.6073 22.4481V12.3769C12.6073 12.0412 12.6446 11.7055 12.7192 11.3698C12.8125 11.0341 12.9897 10.7357 13.2508 10.4746C13.3171 10.4082 13.3913 10.3455 13.4733 10.2864C13.714 10.1128 14.0222 9.9704 14.3978 9.85911ZM18.6094 20.3101V12.3769C18.6094 12.1125 18.5816 11.8601 18.5277 11.6177C18.5054 11.5173 18.4652 11.4446 18.3943 11.3737L18.3777 11.3571L18.3617 11.3398C18.3132 11.2877 18.1753 11.1766 17.8429 11.0702L17.8211 11.0633L17.7997 11.0556C17.5255 10.9568 17.0728 10.8789 16.384 10.8789C15.6339 10.8789 15.1232 10.9577 14.7999 11.0655L14.7796 11.0722L14.759 11.0783C14.378 11.1912 14.2113 11.3124 14.1499 11.3737C14.0433 11.4803 13.9851 11.5813 13.9523 11.6839C13.9029 11.9181 13.8789 12.1486 13.8789 12.3769V22.4481C13.8789 23.5912 13.9601 24.4827 14.1025 25.1471C14.2336 25.7587 14.4454 26.1569 14.6814 26.4174C14.9205 26.6632 15.2672 26.8732 15.7845 27.0093C16.349 27.1579 17.1345 27.2472 18.1745 27.2472H26.6511C27.3979 27.2472 27.657 27.0518 27.7533 26.9389C27.89 26.7783 28.0931 26.3384 28.0931 25.3296C28.0931 24.8872 28.0602 24.508 28.0017 24.1863L27.9999 24.1767C27.9505 23.8922 27.8679 23.7084 27.7853 23.5882L27.7696 23.5653L27.7548 23.5417C27.7312 23.5039 27.6809 23.4407 27.5216 23.377L27.4851 23.3624L27.4495 23.3455C27.322 23.2851 27.0691 23.2162 26.6231 23.2162H21.4842C21.4769 23.358 21.4683 23.4987 21.4585 23.6384C21.4201 24.5002 21.0392 25.2376 20.4338 25.8198C20.1045 26.1462 19.7189 26.3947 19.2902 26.5662L19.268 26.5751L19.2456 26.5831C18.846 26.7258 18.4308 26.7971 18.0066 26.7971H17.9613L17.916 26.7938C17.5306 26.7663 17.1554 26.6831 16.7948 26.5444C16.372 26.3818 15.9974 26.1295 15.6906 25.7886L15.6827 25.7798L15.6749 25.7708C15.2713 25.3052 15.0217 24.7542 14.9307 24.1474L14.9256 24.1135L14.9223 24.0794C14.864 23.4669 14.9655 22.8672 15.2406 22.3112C15.5216 21.7244 15.9596 21.2605 16.4964 20.9102C17.1242 20.4938 17.8556 20.3234 18.6094 20.3101ZM19.881 21.9446H18.706C18.6734 21.9446 18.6412 21.9449 18.6094 21.9457C18.1127 21.9573 17.7066 22.0595 17.3911 22.2523C17.389 22.2537 17.3868 22.2551 17.3846 22.2565C17.3835 22.2572 17.3824 22.258 17.3813 22.2587C17.0693 22.4627 16.8394 22.7123 16.6918 23.0076C16.691 23.0092 16.6903 23.0108 16.6895 23.0125C16.6885 23.0146 16.6875 23.0168 16.6865 23.019C16.56 23.2955 16.5151 23.5901 16.5519 23.9028C16.5519 23.9033 16.552 23.9038 16.5521 23.9042C16.5529 23.9108 16.5538 23.9174 16.5547 23.9239C16.5949 24.2136 16.7152 24.4676 16.9156 24.6862C16.9171 24.6879 16.9187 24.6897 16.9202 24.6915C17.0456 24.8334 17.1966 24.9499 17.3731 25.0407C17.3791 25.0438 17.3851 25.0468 17.3911 25.0498C17.5877 25.1213 17.7929 25.1586 18.0066 25.1616C18.0153 25.1617 18.0239 25.1617 18.0326 25.1618C18.0333 25.1618 18.0339 25.1618 18.0346 25.1618C18.2518 25.1618 18.469 25.1266 18.6862 25.0563C18.6904 25.055 18.6946 25.0536 18.6989 25.0522C18.7012 25.0514 18.7036 25.0506 18.706 25.0498C18.9298 24.9566 19.1256 24.826 19.2935 24.6582C19.2954 24.6562 19.2974 24.6543 19.2993 24.6523C19.6175 24.3319 19.7989 23.9659 19.8436 23.5544C19.844 23.5504 19.8444 23.5465 19.8449 23.5426C19.8487 23.5045 19.8514 23.4661 19.853 23.4273C19.8558 23.3575 19.8584 23.2872 19.8607 23.2162C19.8647 23.0967 19.8681 22.9755 19.8709 22.8525C19.8776 22.5599 19.881 22.2572 19.881 21.9446ZM17.8142 23.7493C17.8185 23.7804 17.8255 23.7969 17.8529 23.8269L17.8629 23.8377L17.8726 23.8488C17.8801 23.8575 17.8895 23.8669 17.9021 23.8768C17.9429 23.8855 17.9865 23.8901 18.0346 23.8901C18.1017 23.8901 18.1746 23.881 18.2562 23.8581C18.3111 23.8307 18.3553 23.798 18.3943 23.759C18.5409 23.6124 18.5775 23.4984 18.5824 23.3764C18.5845 23.3242 18.5865 23.2716 18.5883 23.2186C18.2932 23.2312 18.1379 23.2898 18.0656 23.3307C17.9358 23.4176 17.8725 23.4966 17.8372 23.5609C17.8153 23.6133 17.8054 23.6691 17.8142 23.7493Z" fill="#2342C0"/>
</svg>
