<svg width="16" height="16" viewBox="0 0 16 16" fill="none" xmlns="http://www.w3.org/2000/svg">
<g opacity="0.7">
<path d="M12 5.33337C12 4.27251 11.5786 3.25509 10.8284 2.50495C10.0783 1.7548 9.06087 1.33337 8 1.33337C6.93913 1.33337 5.92172 1.7548 5.17157 2.50495C4.42143 3.25509 4 4.27251 4 5.33337C4 10 2 11.3334 2 11.3334H14C14 11.3334 12 10 12 5.33337Z" stroke="#212429" stroke-width="2" stroke-linecap="round" stroke-linejoin="round"/>
<path d="M9.15335 14C9.03614 14.2021 8.86791 14.3698 8.6655 14.4864C8.46309 14.6029 8.2336 14.6643 8.00001 14.6643C7.76643 14.6643 7.53694 14.6029 7.33453 14.4864C7.13212 14.3698 6.96389 14.2021 6.84668 14" stroke="#212429" stroke-width="2" stroke-linecap="round" stroke-linejoin="round"/>
<circle cx="12" cy="3" r="3" fill="#2342C0"/>
</g>
</svg>
