<svg width="24" height="28" viewBox="0 0 24 28" fill="none" xmlns="http://www.w3.org/2000/svg">
<path d="M11.0858 8.45697L15.3284 12.6996L11.0858 16.9423L9.67157 15.528L12.5 12.6996L9.67157 9.87118L11.0858 8.45697Z" fill="#2342C0"/>
<path fill-rule="evenodd" clip-rule="evenodd" d="M12 1.69958C5.92487 1.69958 1 6.62445 1 12.6996C1 18.7747 5.92487 23.6996 12 23.6996C18.0751 23.6996 23 18.7747 23 12.6996C23 6.62445 18.0751 1.69958 12 1.69958ZM21 12.6996C21 7.72902 16.9706 3.69958 12 3.69958C7.02944 3.69959 3 7.72902 3 12.6996C3 17.6701 7.02944 21.6996 12 21.6996C16.9706 21.6996 21 17.6701 21 12.6996Z" fill="#2342C0"/>
</svg>
