<svg width="24" height="26" viewBox="0 0 24 26" fill="none" xmlns="http://www.w3.org/2000/svg">
<path d="M12 8.44257L13.4142 9.85678L10.5858 12.6852L13.4142 15.5136L12 16.9278L7.75736 12.6852L12 8.44257Z" fill="#2342C0"/>
<path fill-rule="evenodd" clip-rule="evenodd" d="M12 1.68518C18.0751 1.68518 23 6.61005 23 12.6852C23 18.7603 18.0751 23.6852 12 23.6852C5.92487 23.6852 1 18.7603 1 12.6852C1 6.61005 5.92487 1.68518 12 1.68518ZM3 12.6852C3 7.71462 7.02944 3.68518 12 3.68518C16.9706 3.68518 21 7.71462 21 12.6852C21 17.6557 16.9706 21.6852 12 21.6852C7.02944 21.6852 3 17.6557 3 12.6852Z" fill="#2342C0"/>
</svg>
