<svg width="16" height="16" viewBox="0 0 16 16" fill="none" xmlns="http://www.w3.org/2000/svg">
<path fill-rule="evenodd" clip-rule="evenodd" d="M1.25669 14.7436C1.42731 14.9143 1.6513 15 1.87529 15C2.09929 15 2.32328 14.9143 2.49389 14.7436L14.7434 2.49382C15.0855 2.1517 15.0855 1.59871 14.7434 1.25659C14.4013 0.91447 13.8483 0.91447 13.5062 1.25659L11.1044 3.65843C10.2006 3.12731 9.16463 2.75019 8.00005 2.75019C3.83959 2.75019 1.21994 7.37799 1.11057 7.57487C0.962705 7.83999 0.96358 8.16286 1.11232 8.42798C1.17357 8.53735 2.02579 10.0047 3.46861 11.2944L1.25582 13.5073C0.914582 13.8485 0.914582 14.4015 1.25669 14.7436ZM2.90863 7.99923C3.58848 6.98075 5.5029 4.50016 8.00005 4.50016C8.64928 4.50016 9.25738 4.67604 9.81823 4.94466L8.44804 6.31489C8.30454 6.27551 8.1558 6.25014 8.00005 6.25014C7.03322 6.25014 6.25012 7.03325 6.25012 8.00011C6.25012 8.15586 6.2755 8.3046 6.31487 8.4481L4.71018 10.0528C3.87459 9.32134 3.23937 8.49185 2.90863 7.99923ZM12.6145 7.1965L13.8065 6C14.4745 6.80831 14.8537 7.47713 14.8931 7.54855C15.0362 7.80399 15.0354 8.11655 14.8922 8.37198C14.7859 8.5602 12.2436 13 8.30337 13C7.84882 13 7.4152 12.9361 7 12.832L8.51934 11.3069C10.7887 11.1683 12.5383 8.90805 13.1745 7.95859C13.038 7.75441 12.8472 7.48806 12.6145 7.1965Z" fill="#1F2D3D"/>
</svg>
