<svg width="20" height="20" viewBox="0 0 20 20" fill="none" xmlns="http://www.w3.org/2000/svg">
<path d="M14.167 1.66663H5.83366C3.53247 1.66663 1.66699 3.53211 1.66699 5.83329V14.1666C1.66699 16.4678 3.53247 18.3333 5.83366 18.3333H14.167C16.4682 18.3333 18.3337 16.4678 18.3337 14.1666V5.83329C18.3337 3.53211 16.4682 1.66663 14.167 1.66663Z" stroke="white" stroke-width="2" stroke-linecap="round" stroke-linejoin="round"/>
<path d="M13.3337 9.47501C13.4366 10.1685 13.3181 10.8769 12.9952 11.4992C12.6723 12.1215 12.1614 12.6262 11.5351 12.9414C10.9088 13.2566 10.1991 13.3663 9.5069 13.255C8.81468 13.1436 8.17521 12.8167 7.67944 12.321C7.18367 11.8252 6.85685 11.1857 6.74546 10.4935C6.63408 9.8013 6.74379 9.09159 7.05901 8.46532C7.37423 7.83905 7.8789 7.32812 8.50123 7.00521C9.12356 6.68229 9.83187 6.56383 10.5254 6.66667C11.2328 6.77158 11.8878 7.10123 12.3935 7.60693C12.8992 8.11263 13.2288 8.76757 13.3337 9.47501Z" stroke="white" stroke-width="2" stroke-linecap="round" stroke-linejoin="round"/>
<path d="M14.583 5.41663H14.5913" stroke="white" stroke-width="2" stroke-linecap="round" stroke-linejoin="round"/>
</svg>
