<svg width="107" height="19" viewBox="0 0 107 19" fill="none" xmlns="http://www.w3.org/2000/svg">
<path d="M12.308 17C13.98 17 14.728 16.142 14.728 14.228C14.728 12.754 14.464 11.28 12.286 11.28H7.27V4.042C7.27 2.348 6.346 1.6 4.234 1.6C2.034 1.6 1 2.37 1 4.042V11.962C1 15.9 2.034 17 5.642 17H12.308ZM4.234 1.864C6.654 1.864 6.984 2.92 6.984 4.042V11.28H6.06C4.124 11.28 3.684 13.062 4.432 13.92C4.938 14.492 6.06 14.558 6.72 13.898C7.358 13.282 7.27 12.446 7.27 11.566H12.286C14.068 11.566 14.442 12.622 14.442 14.228C14.442 15.988 13.804 16.736 12.308 16.736H5.642C2.21 16.736 1.264 15.724 1.264 11.962V4.042C1.264 2.964 1.638 1.864 4.234 1.864ZM6.984 11.566C6.984 12.38 7.072 13.15 6.522 13.7C5.972 14.25 5.07 14.184 4.652 13.722C4.036 13.04 4.366 11.566 6.06 11.566H6.984ZM29.626 17C31.804 17 31.98 15.614 31.98 14.052C31.98 12.644 31.672 11.346 29.626 11.346H28.086C28.152 10.488 28.152 8.068 28.086 7.254H29.626C32.002 7.254 31.98 5.56 31.98 4.548C31.98 3.052 31.782 1.6 29.626 1.6H21.068C19.33 1.6 18.252 2.128 18.252 4.746V13.854C18.252 16.472 19.33 17 21.068 17H29.626ZM29.626 1.864C31.54 1.864 31.694 3.052 31.694 4.548C31.694 5.846 31.54 6.968 29.626 6.968H28.042C27.8 5.098 27.074 4.416 25.138 4.416C23.18 4.416 23.026 7.254 25.622 7.254H27.8C27.866 8.068 27.866 10.488 27.8 11.346H25.622C23.026 11.346 23.18 14.184 25.138 14.184C27.074 14.184 27.8 13.502 28.042 11.632H29.626C31.342 11.632 31.694 12.556 31.694 14.052C31.694 15.548 31.54 16.736 29.626 16.736H21.068C19.418 16.736 18.516 16.274 18.516 13.854V4.746C18.516 2.348 19.418 1.864 21.068 1.864H29.626ZM27.778 11.632C27.536 13.304 26.898 13.898 25.138 13.898C23.532 13.898 23.378 11.632 25.622 11.632H27.778ZM25.138 4.702C26.898 4.702 27.536 5.274 27.778 6.968H25.622C23.378 6.968 23.532 4.702 25.138 4.702ZM35.9829 16.802C38.4249 17.44 40.9769 16.582 42.4289 14.844C43.7709 16.428 46.0589 17.264 48.4129 16.89C49.0949 16.78 49.5789 16.406 49.8209 15.746C50.8989 12.798 46.7409 5.23 44.6069 2.656C44.0129 1.952 43.2869 1.6 42.4289 1.6C41.5709 1.6 40.7349 1.996 40.2069 2.678C38.2269 5.098 33.9589 12.952 34.9269 15.768C35.1029 16.318 35.4549 16.67 35.9829 16.802ZM42.4289 1.864C43.1989 1.864 43.8589 2.194 44.3869 2.832C46.4109 5.296 50.6129 12.842 49.5569 15.658C49.3589 16.186 48.9629 16.516 48.3689 16.626C46.0809 16.978 43.9029 16.186 42.6049 14.624C43.2429 13.766 43.5949 12.732 43.6609 11.654C43.7709 9.828 41.0429 9.718 41.1529 11.544C41.2189 12.688 41.5709 13.744 42.2529 14.624C40.8449 16.318 38.4249 17.132 36.0489 16.538C35.6309 16.428 35.3449 16.164 35.1909 15.702C34.3109 13.084 38.4029 5.296 40.4049 2.854C40.9109 2.238 41.6589 1.864 42.4289 1.864ZM41.4169 11.544C41.3509 10.07 43.4629 10.18 43.3969 11.632C43.3309 12.666 43.0009 13.59 42.4289 14.404C41.8349 13.59 41.4829 12.622 41.4169 11.544ZM56.0031 17C57.8511 17 58.8851 16.582 58.9951 14.294C61.2831 16.142 63.6591 17 66.4091 17C68.2791 17 68.8731 15.702 68.2351 14.008C67.9931 13.414 67.1791 12.38 66.3651 11.412C67.4211 10.818 68.0591 9.96 68.3011 8.838C68.5871 7.452 68.5871 6.286 68.3011 4.9C67.8171 2.7 66.2551 1.6 63.6371 1.6H58.2911C54.8811 1.6 53.1651 3.272 53.1211 6.638V13.898C53.1211 16.186 53.8251 17 56.0031 17ZM63.6371 1.864C66.1231 1.864 67.5751 2.898 68.0371 4.944C68.3231 6.286 68.3231 7.452 68.0371 8.794C67.7951 9.872 67.1791 10.664 66.1891 11.192C65.4851 10.422 64.3851 9.564 63.4171 9.498C61.6131 9.322 61.3271 11.83 62.9991 12.116C63.8131 12.27 65.0891 12.05 66.1231 11.544C66.6511 12.116 67.7291 13.502 67.9711 14.096C68.5651 15.614 68.1031 16.714 66.4091 16.714C63.6591 16.714 61.3051 15.856 58.9951 13.942C58.9731 12.182 59.1051 10.796 58.6651 9.938C57.8071 8.244 55.4091 9.476 56.1571 11.214C56.4871 11.984 56.8831 12.38 57.6751 13.15C58.0271 13.48 58.3791 13.788 58.7091 14.074C58.7091 16.318 57.7631 16.736 56.0031 16.736C54.0011 16.736 53.3851 16.054 53.3851 13.898V6.638C53.4291 3.448 55.0571 1.864 58.2911 1.864H63.6371ZM56.3991 11.104C55.8051 9.674 57.7191 8.684 58.4231 10.07C58.7971 10.84 58.7091 12.138 58.7091 13.722L57.8731 12.952C57.0371 12.182 56.6851 11.742 56.3991 11.104ZM63.0431 11.852C61.7231 11.632 61.8991 9.652 63.3951 9.762C64.2971 9.85 65.2651 10.598 65.9471 11.324C64.9131 11.786 63.7471 12.006 63.0431 11.852ZM84.2513 17C86.4953 17 86.8473 15.944 86.8473 13.436V4.02C86.8473 2.458 85.7913 1.6 83.8773 1.6C81.8973 1.6 80.9073 2.37 80.9073 3.932V6.484C79.1473 4.548 76.2213 1.6 74.0873 1.6C71.5573 1.6 71.4473 3.162 71.4473 5.934V14.668C71.4473 16.23 72.4593 17 74.5053 17C76.4193 17 77.3873 16.23 77.3873 14.668V12.182C79.3233 14.47 82.0293 17 84.2513 17ZM77.3873 8.376C77.3873 5.076 73.1413 6.484 75.0993 9.256C75.4513 9.762 76.1773 10.73 77.1233 11.852V14.668C77.1233 16.054 76.2433 16.736 74.5053 16.736C72.6353 16.736 71.7113 16.054 71.7113 14.668V5.934C71.7113 2.986 71.9093 1.864 74.0873 1.864C76.2213 1.864 79.2573 5.01 80.9073 6.902V10.224C80.9073 12.248 82.5573 12.072 82.3373 12.072C83.3713 12.072 84.2733 10.95 83.1953 9.344C82.8433 8.838 82.1173 7.892 81.1713 6.814V3.932C81.1713 2.524 82.0293 1.864 83.8773 1.864C84.8673 1.864 86.5833 2.172 86.5833 4.02V13.436C86.5833 15.944 86.2533 16.736 84.2513 16.736C82.0513 16.736 79.3233 14.052 77.3873 11.764V8.376ZM81.1713 7.232C82.0293 8.2 82.6233 9.058 82.9533 9.498C84.5593 11.896 81.1713 12.842 81.1713 10.224V7.232ZM75.3413 9.102C73.6693 6.726 77.1233 5.56 77.1233 8.376V11.434C76.2653 10.4 75.6713 9.542 75.3413 9.102ZM92.6554 17C94.5034 17 95.5374 16.582 95.6474 14.294C97.9354 16.142 100.311 17 103.061 17C104.931 17 105.525 15.702 104.887 14.008C104.645 13.414 103.831 12.38 103.017 11.412C104.073 10.818 104.711 9.96 104.953 8.838C105.239 7.452 105.239 6.286 104.953 4.9C104.469 2.7 102.907 1.6 100.289 1.6H94.9434C91.5334 1.6 89.8174 3.272 89.7734 6.638V13.898C89.7734 16.186 90.4774 17 92.6554 17ZM100.289 1.864C102.775 1.864 104.227 2.898 104.689 4.944C104.975 6.286 104.975 7.452 104.689 8.794C104.447 9.872 103.831 10.664 102.841 11.192C102.137 10.422 101.037 9.564 100.069 9.498C98.2654 9.322 97.9794 11.83 99.6514 12.116C100.465 12.27 101.741 12.05 102.775 11.544C103.303 12.116 104.381 13.502 104.623 14.096C105.217 15.614 104.755 16.714 103.061 16.714C100.311 16.714 97.9574 15.856 95.6474 13.942C95.6254 12.182 95.7574 10.796 95.3174 9.938C94.4594 8.244 92.0614 9.476 92.8094 11.214C93.1394 11.984 93.5354 12.38 94.3274 13.15C94.6794 13.48 95.0314 13.788 95.3614 14.074C95.3614 16.318 94.4154 16.736 92.6554 16.736C90.6534 16.736 90.0374 16.054 90.0374 13.898V6.638C90.0814 3.448 91.7094 1.864 94.9434 1.864H100.289ZM93.0514 11.104C92.4574 9.674 94.3714 8.684 95.0754 10.07C95.4494 10.84 95.3614 12.138 95.3614 13.722L94.5254 12.952C93.6894 12.182 93.3374 11.742 93.0514 11.104ZM99.6954 11.852C98.3754 11.632 98.5514 9.652 100.047 9.762C100.949 9.85 101.917 10.598 102.599 11.324C101.565 11.786 100.399 12.006 99.6954 11.852Z" fill="#403D58"/>
<path d="M7.27 11.28H6.27V12.28H7.27V11.28ZM6.984 11.28V12.28H7.984V11.28H6.984ZM4.432 13.92L3.67821 14.5772L3.683 14.5826L4.432 13.92ZM6.72 13.898L6.02541 13.1786L6.0191 13.1847L6.01289 13.1909L6.72 13.898ZM7.27 11.566V10.566H6.27V11.566H7.27ZM6.984 11.566H7.984V10.566H6.984V11.566ZM4.652 13.722L3.9099 14.3923L3.91046 14.3929L4.652 13.722ZM12.308 18C13.3059 18 14.2425 17.7408 14.8984 16.9893C15.5275 16.2684 15.728 15.2832 15.728 14.228H13.728C13.728 15.0868 13.5545 15.4876 13.3916 15.6742C13.2555 15.8302 12.9821 16 12.308 16V18ZM15.728 14.228C15.728 13.481 15.6732 12.4907 15.1767 11.6793C14.6132 10.7584 13.6306 10.28 12.286 10.28V12.28C13.1194 12.28 13.3578 12.5386 13.4708 12.7232C13.6508 13.0173 13.728 13.501 13.728 14.228H15.728ZM12.286 10.28H7.27V12.28H12.286V10.28ZM8.27 11.28V4.042H6.27V11.28H8.27ZM8.27 4.042C8.27 3.01398 7.98268 2.06058 7.17133 1.407C6.41033 0.793965 5.37069 0.599999 4.234 0.599999V2.6C5.20931 2.6 5.68767 2.78003 5.91667 2.9645C6.09532 3.10841 6.27 3.37602 6.27 4.042H8.27ZM4.234 0.599999C3.05191 0.599999 1.98089 0.800295 1.19068 1.39499C0.340085 2.03513 0 2.9849 0 4.042H2C2 3.42709 2.17691 3.15587 2.39332 2.99301C2.67011 2.7847 3.21609 2.6 4.234 2.6V0.599999ZM0 4.042V11.962H2V4.042H0ZM0 11.962C0 13.9396 0.239686 15.5617 1.2338 16.6367C2.25243 17.7382 3.80677 18 5.642 18V16C3.86923 16 3.10257 15.7118 2.7022 15.2788C2.27731 14.8193 2 13.9224 2 11.962H0ZM5.642 18H12.308V16H5.642V18ZM4.234 2.864C5.33338 2.864 5.68488 3.10905 5.79236 3.2219C5.90027 3.33521 5.984 3.54208 5.984 4.042H7.984C7.984 3.41992 7.90273 2.53779 7.24064 1.84259C6.57812 1.14695 5.55462 0.863999 4.234 0.863999V2.864ZM5.984 4.042V11.28H7.984V4.042H5.984ZM6.984 10.28H6.06V12.28H6.984V10.28ZM6.06 10.28C4.7486 10.28 3.77481 10.9113 3.33366 11.8546C2.9234 12.7319 3.02023 13.8224 3.67823 14.5771L5.18577 13.2629C5.09577 13.1596 5.0386 12.9301 5.14534 12.7019C5.22119 12.5397 5.4354 12.28 6.06 12.28V10.28ZM3.683 14.5826C4.16114 15.1231 4.86067 15.3626 5.50535 15.3709C6.16331 15.3794 6.88114 15.1511 7.42711 14.6051L6.01289 13.1909C5.89886 13.3049 5.72569 13.3736 5.53115 13.3711C5.32333 13.3684 5.20886 13.2889 5.181 13.2574L3.683 14.5826ZM7.4146 14.6174C7.93653 14.1135 8.14412 13.5216 8.22378 12.9753C8.2954 12.4842 8.27 11.9303 8.27 11.566H6.27C6.27 12.0817 6.2886 12.3858 6.24472 12.6867C6.20888 12.9324 6.14147 13.0665 6.02541 13.1786L7.4146 14.6174ZM7.27 12.566H12.286V10.566H7.27V12.566ZM12.286 12.566C12.9702 12.566 13.1359 12.755 13.2055 12.8573C13.3394 13.0541 13.442 13.4499 13.442 14.228H15.442C15.442 13.4001 15.3576 12.4649 14.859 11.7322C14.2961 10.905 13.3838 10.566 12.286 10.566V12.566ZM13.442 14.228C13.442 15.0253 13.29 15.3582 13.1746 15.4938C13.0923 15.5904 12.9009 15.736 12.308 15.736V17.736C13.2111 17.736 14.0867 17.5076 14.6974 16.7902C15.275 16.1118 15.442 15.1907 15.442 14.228H13.442ZM12.308 15.736H5.642V17.736H12.308V15.736ZM5.642 15.736C3.94936 15.736 3.25545 15.4669 2.90188 15.0826C2.52176 14.6695 2.264 13.8426 2.264 11.962H0.264C0.264 13.8434 0.479236 15.4035 1.43012 16.4369C2.40756 17.4991 3.90264 17.736 5.642 17.736V15.736ZM2.264 11.962V4.042H0.264V11.962H2.264ZM2.264 4.042C2.264 3.59378 2.3472 3.38866 2.47552 3.26287C2.61928 3.12195 3.04274 2.864 4.234 2.864V0.863999C2.82926 0.863999 1.76772 1.15605 1.07548 1.83463C0.367798 2.52834 0.264 3.41222 0.264 4.042H2.264ZM5.984 11.566C5.984 12.0538 6.00327 12.326 5.96744 12.6043C5.93842 12.8296 5.88392 12.9239 5.81489 12.9929L7.22911 14.4071C7.71008 13.9261 7.88658 13.3604 7.95106 12.8597C8.00873 12.412 7.984 11.8922 7.984 11.566H5.984ZM5.81489 12.9929C5.75323 13.0546 5.66182 13.0923 5.55337 13.0906C5.43096 13.0887 5.3839 13.0404 5.39354 13.0511L3.91046 14.3929C4.72393 15.292 6.28723 15.349 7.22911 14.4071L5.81489 12.9929ZM5.3941 13.0517C5.37899 13.035 5.33562 12.9372 5.3917 12.8201C5.41309 12.7754 5.45317 12.7221 5.53622 12.6744C5.62119 12.6257 5.7823 12.566 6.06 12.566V10.566C4.89545 10.566 3.99854 11.0985 3.5878 11.9564C3.20938 12.7468 3.30901 13.727 3.9099 14.3923L5.3941 13.0517ZM6.06 12.566H6.984V10.566H6.06V12.566ZM28.086 11.346L27.0889 11.2693L27.0061 12.346H28.086V11.346ZM28.086 7.254V6.254H27.0016L27.0892 7.33482L28.086 7.254ZM28.042 6.968L27.0502 7.09634L27.163 7.968H28.042V6.968ZM27.8 7.254L28.7967 7.17318L28.7222 6.254H27.8V7.254ZM27.8 11.346V12.346H28.726L28.797 11.4227L27.8 11.346ZM28.042 11.632V10.632H27.163L27.0502 11.5037L28.042 11.632ZM27.778 11.632L28.7676 11.7752L28.9331 10.632H27.778V11.632ZM27.778 6.968V7.968H28.931L28.7679 6.82658L27.778 6.968ZM29.626 18C30.9475 18 31.9334 17.5579 32.4833 16.6159C32.954 15.8096 32.98 14.8068 32.98 14.052H30.98C30.98 14.8592 30.9179 15.3304 30.7561 15.6076C30.6735 15.7491 30.4824 16 29.626 16V18ZM32.98 14.052C32.98 13.3229 32.9117 12.3825 32.403 11.6174C31.833 10.7601 30.8779 10.346 29.626 10.346V12.346C30.42 12.346 30.6419 12.5809 30.7374 12.7246C30.8942 12.9605 30.98 13.3731 30.98 14.052H32.98ZM29.626 10.346H28.086V12.346H29.626V10.346ZM29.083 11.4227C29.1528 10.5151 29.1532 8.04232 29.0827 7.17318L27.0892 7.33482C27.1508 8.09368 27.1511 10.4609 27.0889 11.2693L29.083 11.4227ZM28.086 8.254H29.626V6.254H28.086V8.254ZM29.626 8.254C30.335 8.254 30.9494 8.12795 31.4616 7.85858C31.9859 7.58286 32.3453 7.18704 32.5775 6.74879C33.0064 5.93966 32.98 4.99716 32.98 4.548H30.98C30.98 5.11084 30.9645 5.52134 30.8104 5.81221C30.7511 5.92396 30.6705 6.01489 30.5307 6.08842C30.3788 6.1683 30.1049 6.254 29.626 6.254V8.254ZM32.98 4.548C32.98 3.81246 32.9456 2.82016 32.4765 2.01128C31.9331 1.07436 30.9594 0.599999 29.626 0.599999V2.6C30.4485 2.6 30.6518 2.85164 30.7464 3.01472C30.9153 3.30584 30.98 3.78754 30.98 4.548H32.98ZM29.626 0.599999H21.068V2.6H29.626V0.599999ZM21.068 0.599999C20.1456 0.599999 19.1019 0.72799 18.3219 1.46389C17.5343 2.20704 17.252 3.3403 17.252 4.746H19.252C19.252 3.53369 19.5086 3.09396 19.6945 2.9186C19.888 2.73601 20.2523 2.6 21.068 2.6V0.599999ZM17.252 4.746V13.854H19.252V4.746H17.252ZM17.252 13.854C17.252 15.2597 17.5343 16.393 18.3219 17.1361C19.1019 17.872 20.1456 18 21.068 18V16C20.2523 16 19.888 15.864 19.6945 15.6814C19.5086 15.506 19.252 15.0663 19.252 13.854H17.252ZM21.068 18H29.626V16H21.068V18ZM29.626 2.864C30.3587 2.864 30.4688 3.07035 30.5104 3.14273C30.6362 3.362 30.694 3.76517 30.694 4.548H32.694C32.694 3.83483 32.6747 2.896 32.245 2.14727C31.7311 1.25164 30.8072 0.863999 29.626 0.863999V2.864ZM30.694 4.548C30.694 5.22401 30.6356 5.54593 30.5306 5.71333C30.5017 5.75932 30.3846 5.968 29.626 5.968V7.968C30.7813 7.968 31.6982 7.61568 32.2248 6.77617C32.6753 6.05807 32.694 5.16999 32.694 4.548H30.694ZM29.626 5.968H28.042V7.968H29.626V5.968ZM29.0337 6.83966C28.9028 5.8279 28.6166 4.89109 27.8904 4.24409C27.1615 3.59471 26.191 3.416 25.138 3.416V5.416C26.0209 5.416 26.3814 5.57828 26.56 5.73741C26.7413 5.89891 26.9392 6.2381 27.0502 7.09634L29.0337 6.83966ZM25.138 3.416C23.5768 3.416 22.5997 4.61648 22.6739 5.89304C22.7103 6.51963 23 7.13349 23.5365 7.57953C24.072 8.0247 24.7907 8.254 25.622 8.254V6.254C25.1552 6.254 24.9197 6.12854 24.8151 6.0416C24.7115 5.95551 24.6753 5.85987 24.6705 5.77696C24.6653 5.68644 24.6967 5.60241 24.7523 5.54306C24.798 5.49426 24.9032 5.416 25.138 5.416V3.416ZM25.622 8.254H27.8V6.254H25.622V8.254ZM26.8032 7.33482C26.8648 8.09368 26.8651 10.4609 26.8029 11.2693L28.797 11.4227C28.8668 10.5151 28.8672 8.04232 28.7967 7.17318L26.8032 7.33482ZM27.8 10.346H25.622V12.346H27.8V10.346ZM25.622 10.346C24.7907 10.346 24.072 10.5753 23.5365 11.0205C23 11.4665 22.7103 12.0804 22.6739 12.707C22.5997 13.9835 23.5768 15.184 25.138 15.184V13.184C24.9032 13.184 24.798 13.1057 24.7523 13.0569C24.6967 12.9976 24.6653 12.9136 24.6705 12.823C24.6753 12.7401 24.7115 12.6445 24.8151 12.5584C24.9197 12.4715 25.1552 12.346 25.622 12.346V10.346ZM25.138 15.184C26.191 15.184 27.1615 15.0053 27.8904 14.3559C28.6166 13.7089 28.9028 12.7721 29.0337 11.7603L27.0502 11.5037C26.9392 12.3619 26.7413 12.7011 26.56 12.8626C26.3814 13.0217 26.0209 13.184 25.138 13.184V15.184ZM28.042 12.632H29.626V10.632H28.042V12.632ZM29.626 12.632C30.311 12.632 30.4514 12.8093 30.4933 12.8673C30.5951 13.0079 30.694 13.3261 30.694 14.052H32.694C32.694 13.2819 32.6168 12.3901 32.1136 11.6947C31.5505 10.9167 30.6569 10.632 29.626 10.632V12.632ZM30.694 14.052C30.694 14.8348 30.6362 15.238 30.5104 15.4573C30.4688 15.5296 30.3587 15.736 29.626 15.736V17.736C30.8072 17.736 31.7311 17.3484 32.245 16.4527C32.6747 15.704 32.694 14.7652 32.694 14.052H30.694ZM29.626 15.736H21.068V17.736H29.626V15.736ZM21.068 15.736C20.279 15.736 19.999 15.6101 19.8688 15.484C19.739 15.3584 19.516 14.9924 19.516 13.854H17.516C17.516 15.1356 17.7439 16.2106 18.4776 16.921C19.2109 17.6309 20.2069 17.736 21.068 17.736V15.736ZM19.516 13.854V4.746H17.516V13.854H19.516ZM19.516 4.746C19.516 3.62181 19.7377 3.25194 19.8711 3.12192C20.0037 2.99275 20.2867 2.864 21.068 2.864V0.863999C20.1993 0.863999 19.2062 0.97725 18.4753 1.68958C17.7452 2.40106 17.516 3.47219 17.516 4.746H19.516ZM21.068 2.864H29.626V0.863999H21.068V2.864ZM26.7883 11.4888C26.6776 12.2535 26.5043 12.5211 26.3698 12.6385C26.2362 12.755 25.9401 12.898 25.138 12.898V14.898C26.0958 14.898 26.9987 14.744 27.6846 14.1455C28.3696 13.5479 28.6363 12.6825 28.7676 11.7752L26.7883 11.4888ZM25.138 12.898C25.0557 12.898 25.0058 12.8838 24.9799 12.8733C24.954 12.8629 24.9432 12.8528 24.9397 12.8492C24.933 12.8422 24.9335 12.8384 24.9336 12.8376C24.9336 12.8373 24.9337 12.8341 24.9374 12.8273C24.9408 12.8211 24.952 12.8029 24.9837 12.7785C25.0452 12.7312 25.2256 12.632 25.622 12.632V10.632C24.1536 10.632 23.0298 11.4428 22.9388 12.6924C22.8527 13.8751 23.7917 14.898 25.138 14.898V12.898ZM25.622 12.632H27.778V10.632H25.622V12.632ZM25.138 5.702C25.9473 5.702 26.2414 5.84211 26.3727 5.95577C26.5029 6.06851 26.6769 6.33163 26.788 7.10942L28.7679 6.82658C28.637 5.91037 28.371 5.04049 27.6817 4.44373C26.9935 3.84789 26.0886 3.702 25.138 3.702V5.702ZM27.778 5.968H25.622V7.968H27.778V5.968ZM25.622 5.968C25.2256 5.968 25.0452 5.86878 24.9837 5.82146C24.952 5.7971 24.9408 5.77891 24.9374 5.77271C24.9337 5.76591 24.9336 5.76272 24.9336 5.76238C24.9335 5.76162 24.933 5.7578 24.9397 5.75084C24.9432 5.74725 24.954 5.73711 24.9799 5.72669C25.0058 5.71624 25.0557 5.702 25.138 5.702V3.702C23.7917 3.702 22.8527 4.72487 22.9388 5.90762C23.0298 7.15723 24.1536 7.968 25.622 7.968V5.968ZM35.9829 16.802L36.2357 15.8344L36.2255 15.8319L35.9829 16.802ZM42.4289 14.844L43.1919 14.1976L42.4236 13.2907L41.6615 14.2029L42.4289 14.844ZM48.4129 16.89L48.5698 17.8776L48.5722 17.8772L48.4129 16.89ZM49.8209 15.746L50.7598 16.0903L50.7601 16.0894L49.8209 15.746ZM44.6069 2.656L45.3768 2.01774L45.3712 2.01113L44.6069 2.656ZM40.2069 2.678L40.9809 3.31124L40.9894 3.30082L40.9976 3.29017L40.2069 2.678ZM34.9269 15.768L35.8793 15.4632L35.8761 15.453L35.8726 15.4429L34.9269 15.768ZM44.3869 2.832L45.1597 2.19726L45.1573 2.19443L44.3869 2.832ZM49.5569 15.658L48.6206 15.3069L48.6206 15.3069L49.5569 15.658ZM48.3689 16.626L48.521 17.6144L48.536 17.6121L48.551 17.6093L48.3689 16.626ZM42.6049 14.624L41.8025 14.0273L41.3332 14.6583L41.8358 15.2631L42.6049 14.624ZM43.6609 11.654L44.6591 11.7151L44.6591 11.7141L43.6609 11.654ZM41.1529 11.544L42.1513 11.4864L42.1511 11.4839L41.1529 11.544ZM42.2529 14.624L43.022 15.2632L43.535 14.6459L43.0433 14.0114L42.2529 14.624ZM36.0489 16.538L35.7944 17.5051L35.8064 17.5081L36.0489 16.538ZM35.1909 15.702L36.1396 15.3858L36.1388 15.3834L35.1909 15.702ZM40.4049 2.854L39.6322 2.21926L39.6316 2.22L40.4049 2.854ZM41.4169 11.544L40.4179 11.5887L40.4183 11.5969L40.4188 11.6051L41.4169 11.544ZM43.3969 11.632L44.3949 11.6957L44.3955 11.6866L44.3959 11.6774L43.3969 11.632ZM42.4289 14.404L41.6211 14.9935L42.4443 16.1215L43.2471 14.9789L42.4289 14.404ZM35.7301 17.7695C38.537 18.5028 41.4898 17.5279 43.1963 15.4851L41.6615 14.2029C40.4641 15.6361 38.3128 16.3772 36.2357 15.8345L35.7301 17.7695ZM41.6659 15.4904C43.2532 17.3639 45.9013 18.3016 48.5698 17.8776L48.256 15.9024C46.2166 16.2264 44.2886 15.4921 43.1919 14.1976L41.6659 15.4904ZM48.5722 17.8772C49.5904 17.713 50.3862 17.1091 50.7598 16.0903L48.882 15.4017C48.7716 15.7029 48.5995 15.847 48.2537 15.9028L48.5722 17.8772ZM50.7601 16.0894C51.133 15.0695 51.0179 13.8047 50.735 12.5918C50.4432 11.3411 49.9304 9.97295 49.3291 8.6476C48.1309 6.0065 46.5141 3.38965 45.3768 2.01776L43.8371 3.29424C44.8337 4.49634 46.363 6.9505 47.5078 9.4739C48.078 10.7308 48.5358 11.9683 48.7873 13.0461C49.0475 14.1618 49.0478 14.9485 48.8817 15.4026L50.7601 16.0894ZM45.3712 2.01113C44.6031 1.10079 43.6054 0.599999 42.4289 0.599999V2.6C42.9685 2.6 43.4227 2.80321 43.8426 3.30087L45.3712 2.01113ZM42.4289 0.599999C41.2718 0.599999 40.1398 1.13122 39.4162 2.06583L40.9976 3.29017C41.3301 2.86078 41.8701 2.6 42.4289 2.6V0.599999ZM39.433 2.04476C38.3712 3.34253 36.7673 5.99281 35.5515 8.65969C34.9408 9.99938 34.4104 11.3809 34.0954 12.6306C33.7923 13.8331 33.6389 15.0971 33.9812 16.0931L35.8726 15.4429C35.731 15.0309 35.748 14.2572 36.0348 13.1194C36.3097 12.0289 36.7886 10.7676 37.3713 9.48931C38.5425 6.92019 40.0627 4.43347 40.9809 3.31124L39.433 2.04476ZM33.9745 16.0728C34.2444 16.9161 34.8411 17.5473 35.7404 17.7721L36.2255 15.8319C36.0688 15.7927 35.9615 15.7199 35.8793 15.4632L33.9745 16.0728ZM42.4289 2.864C42.8713 2.864 43.2588 3.03728 43.6165 3.46957L45.1573 2.19443C44.4591 1.35071 43.5265 0.863999 42.4289 0.863999V2.864ZM43.6142 3.46674C44.5585 4.61627 46.0727 7.04037 47.2184 9.53094C47.7892 10.7716 48.2511 11.9916 48.5074 13.0482C48.7743 14.148 48.7741 14.8974 48.6206 15.3069L50.4933 16.0091C50.8677 15.0106 50.7383 13.7607 50.451 12.5767C50.1533 11.3494 49.6361 10.0009 49.0354 8.69506C47.8382 6.09263 46.2394 3.51173 45.1596 2.19726L43.6142 3.46674ZM48.6206 15.3069C48.5516 15.4907 48.4528 15.5935 48.1868 15.6427L48.551 17.6093C49.473 17.4385 50.1662 16.8813 50.4933 16.0091L48.6206 15.3069ZM48.2169 15.6376C46.2386 15.942 44.4245 15.249 43.374 13.9849L41.8358 15.2631C43.3814 17.123 45.9232 18.014 48.521 17.6144L48.2169 15.6376ZM43.4074 15.2207C44.1711 14.1937 44.5822 12.9697 44.6591 11.7151L42.6628 11.5929C42.6076 12.4943 42.3148 13.3383 41.8025 14.0273L43.4074 15.2207ZM44.6591 11.7141C44.7028 10.9887 44.4595 10.355 44.0071 9.90258C43.5723 9.46782 42.9985 9.25347 42.4489 9.23038C41.9006 9.20734 41.3025 9.37271 40.8394 9.79576C40.3541 10.2391 40.1111 10.88 40.1547 11.6041L42.1511 11.4839C42.1449 11.3804 42.1604 11.3257 42.1685 11.3045C42.1761 11.2845 42.1833 11.277 42.1883 11.2724C42.2024 11.2595 42.2587 11.2242 42.3649 11.2286C42.4698 11.233 42.5505 11.2744 42.5929 11.3168C42.612 11.336 42.6287 11.3599 42.6413 11.3943C42.654 11.4289 42.6689 11.4916 42.6627 11.5939L44.6591 11.7141ZM40.1546 11.6016C40.2305 12.9173 40.6395 14.1746 41.4625 15.2366L43.0433 14.0114C42.5024 13.3134 42.2074 12.4587 42.1513 11.4864L40.1546 11.6016ZM41.4839 13.9848C40.3313 15.3715 38.3098 16.0724 36.2915 15.5679L35.8064 17.5081C38.54 18.1916 41.3586 17.2645 43.022 15.2632L41.4839 13.9848ZM36.3034 15.5709C36.2356 15.5531 36.2177 15.5347 36.214 15.5312C36.2084 15.5257 36.1753 15.4929 36.1396 15.3858L34.2422 16.0182C34.4969 16.7821 35.0318 17.3044 35.7944 17.5051L36.3034 15.5709ZM36.1388 15.3834C36.0182 15.0247 36.0361 14.2956 36.3215 13.1816C36.5933 12.121 37.0605 10.8832 37.6288 9.62309C38.7719 7.08831 40.2531 4.61652 41.1783 3.488L39.6316 2.22C38.5548 3.53348 36.989 6.17669 35.8056 8.80091C35.2106 10.1203 34.6947 11.473 34.3841 12.6853C34.0872 13.8441 33.9236 15.0703 34.243 16.0206L36.1388 15.3834ZM41.1777 3.48874C41.5087 3.08577 41.981 2.864 42.4289 2.864V0.863999C41.3369 0.863999 40.3132 1.39023 39.6322 2.21926L41.1777 3.48874ZM42.4159 11.4993C42.413 11.4346 42.4233 11.413 42.4207 11.4198C42.4197 11.4226 42.4167 11.4294 42.4106 11.4384C42.4045 11.4475 42.3969 11.4564 42.3882 11.4645C42.3703 11.4811 42.355 11.4876 42.3496 11.4894C42.345 11.4909 42.3483 11.4891 42.3586 11.4896C42.3688 11.4901 42.3788 11.4926 42.3863 11.4958C42.3932 11.4988 42.3942 11.5007 42.392 11.4984C42.3887 11.4951 42.3883 11.4926 42.3899 11.4969C42.3915 11.5014 42.4006 11.5278 42.398 11.5866L44.3959 11.6774C44.4242 11.0543 44.2139 10.4999 43.8202 10.0984C43.4414 9.71194 42.9408 9.51541 42.4553 9.49192C41.9704 9.46846 41.4395 9.61611 41.0273 9.99893C40.597 10.3985 40.3901 10.9664 40.4179 11.5887L42.4159 11.4993ZM42.399 11.5683C42.3446 12.4191 42.0766 13.1661 41.6107 13.8291L43.2471 14.9789C43.9253 14.0139 44.3172 12.9129 44.3949 11.6957L42.399 11.5683ZM43.2367 13.8145C42.7582 13.1587 42.4697 12.3751 42.4151 11.4829L40.4188 11.6051C40.4962 12.8689 40.9117 14.0213 41.6211 14.9935L43.2367 13.8145ZM58.9951 14.294L59.6234 13.5161L58.0909 12.2782L57.9962 14.246L58.9951 14.294ZM68.2351 14.008L69.1709 13.6555L69.1662 13.6431L69.1612 13.6307L68.2351 14.008ZM66.3651 11.412L65.8748 10.5404L64.8231 11.132L65.5997 12.0556L66.3651 11.412ZM68.3011 8.838L69.2787 9.04885L69.2805 9.04009L68.3011 8.838ZM68.3011 4.9L69.2805 4.69789L69.2777 4.68514L68.3011 4.9ZM53.1211 6.638L52.1211 6.62493V6.638H53.1211ZM68.0371 4.944L69.0152 4.73555L69.0125 4.72374L68.0371 4.944ZM68.0371 8.794L69.0129 9.01305L69.0151 9.00243L68.0371 8.794ZM66.1891 11.192L65.4511 11.8668L65.9748 12.4396L66.6597 12.0744L66.1891 11.192ZM63.4171 9.498L63.32 10.4933L63.3345 10.4947L63.3491 10.4957L63.4171 9.498ZM62.9991 12.116L63.185 11.1334L63.1764 11.1318L63.1677 11.1303L62.9991 12.116ZM66.1231 11.544L66.8579 10.8657L66.3526 10.3184L65.6835 10.6458L66.1231 11.544ZM67.9711 14.096L68.9024 13.7316L68.8972 13.7187L67.9711 14.096ZM58.9951 13.942L57.9952 13.9545L58.001 14.4169L58.3571 14.712L58.9951 13.942ZM58.6651 9.938L57.773 10.3898L57.7753 10.3943L58.6651 9.938ZM56.1571 11.214L57.0762 10.8201L57.0756 10.8187L56.1571 11.214ZM57.6751 13.15L56.978 13.867L56.9845 13.8733L56.9912 13.8795L57.6751 13.15ZM58.7091 14.074H59.7091V13.6174L59.364 13.3183L58.7091 14.074ZM53.3851 6.638L52.3851 6.62421V6.638H53.3851ZM56.3991 11.104L55.4756 11.4876L55.4809 11.5004L55.4866 11.5131L56.3991 11.104ZM58.4231 10.07L59.3226 9.6331L59.3187 9.62508L59.3147 9.61713L58.4231 10.07ZM58.7091 13.722L58.0316 14.4575L59.7091 16.0026V13.722H58.7091ZM57.8731 12.952L58.5506 12.2165L57.8731 12.952ZM63.0431 11.852L63.2568 10.8751L63.2323 10.8697L63.2075 10.8656L63.0431 11.852ZM63.3951 9.762L63.4922 8.76672L63.4803 8.76557L63.4684 8.76469L63.3951 9.762ZM65.9471 11.324L66.355 12.237L67.6382 11.6637L66.6759 10.6393L65.9471 11.324ZM56.0031 18C56.9433 18 57.9726 17.9091 58.7639 17.295C59.6068 16.641 59.9333 15.6042 59.9939 14.342L57.9962 14.246C57.9469 15.2718 57.7013 15.588 57.5378 15.715C57.3226 15.8819 56.9108 16 56.0031 16V18ZM58.3668 15.0719C60.8221 17.0551 63.4173 18 66.4091 18V16C63.9009 16 61.744 15.2289 59.6234 13.5161L58.3668 15.0719ZM66.4091 18C67.5711 18 68.5966 17.5825 69.1336 16.6306C69.6403 15.7324 69.5431 14.6437 69.1709 13.6555L67.2993 14.3605C67.5651 15.0663 67.4899 15.4736 67.3916 15.6479C67.3236 15.7685 67.1171 16 66.4091 16V18ZM69.1612 13.6307C68.9885 13.2068 68.6561 12.712 68.3187 12.2557C67.9649 11.7773 67.5425 11.2584 67.1305 10.7684L65.5997 12.0556C66.0016 12.5336 66.3933 13.0157 66.7105 13.4448C67.0441 13.896 67.2397 14.2152 67.309 14.3853L69.1612 13.6307ZM66.8554 12.2836C68.1505 11.5551 68.9738 10.4621 69.2786 9.04884L67.3236 8.62716C67.1444 9.45788 66.6917 10.0809 65.8748 10.5404L66.8554 12.2836ZM69.2805 9.04009C69.594 7.52077 69.594 6.21723 69.2805 4.69791L67.3217 5.10209C67.5802 6.35477 67.5802 7.38323 67.3217 8.63591L69.2805 9.04009ZM69.2777 4.68514C68.9923 3.3878 68.3637 2.32723 67.3465 1.60835C66.3467 0.901793 65.0772 0.599999 63.6371 0.599999V2.6C64.815 2.6 65.6355 2.84821 66.1922 3.24165C66.7315 3.62277 67.1259 4.2122 67.3244 5.11486L69.2777 4.68514ZM63.6371 0.599999H58.2911V2.6H63.6371V0.599999ZM58.2911 0.599999C56.4357 0.599999 54.8598 1.05513 53.7459 2.14055C52.6297 3.22826 52.1452 4.78506 52.1212 6.62493L54.121 6.65107C54.141 5.12494 54.5365 4.16273 55.1417 3.57295C55.7493 2.98087 56.7365 2.6 58.2911 2.6V0.599999ZM52.1211 6.638V13.898H54.1211V6.638H52.1211ZM52.1211 13.898C52.1211 15.0858 52.29 16.1984 53.0078 16.9823C53.7488 17.7915 54.836 18 56.0031 18V16C54.9922 16 54.6383 15.8015 54.4828 15.6317C54.3042 15.4366 54.1211 14.9981 54.1211 13.898H52.1211ZM63.6371 2.864C64.7506 2.864 65.5111 3.09639 66.021 3.45482C66.5133 3.8009 66.8747 4.33632 67.0617 5.16426L69.0125 4.72374C68.7375 3.50568 68.1419 2.5011 67.1712 1.81867C66.2181 1.14861 65.0096 0.863999 63.6371 0.863999V2.864ZM67.0591 5.15243C67.3158 6.35702 67.3158 7.38098 67.0591 8.58557L69.0151 9.00243C69.3304 7.52302 69.3304 6.21498 69.0151 4.73556L67.0591 5.15243ZM67.0614 8.57496C66.8853 9.35912 66.4605 9.9139 65.7185 10.3096L66.6597 12.0744C67.8977 11.4141 68.7048 10.3849 69.0128 9.01304L67.0614 8.57496ZM66.9271 10.5172C66.5303 10.0832 66.0176 9.61859 65.4524 9.24604C64.9024 8.88351 64.2151 8.55009 63.4851 8.50032L63.3491 10.4957C63.5871 10.5119 63.9338 10.6405 64.3518 10.916C64.7545 11.1814 65.1439 11.5308 65.4511 11.8668L66.9271 10.5172ZM63.5142 8.50273C62.8168 8.43469 62.1872 8.62585 61.7103 9.02862C61.2474 9.41959 60.9878 9.95942 60.9139 10.4977C60.765 11.5815 61.3763 12.8529 62.8305 13.1017L63.1677 11.1303C63.0125 11.1038 62.9621 11.0443 62.9397 11.0102C62.9061 10.9594 62.881 10.8736 62.8953 10.7698C62.9094 10.6673 62.955 10.5953 63.0008 10.5566C63.0327 10.5296 63.1154 10.4733 63.32 10.4933L63.5142 8.50273ZM62.8132 13.0986C63.8961 13.3034 65.394 13.0141 66.5626 12.4422L65.6835 10.6458C64.7842 11.0859 63.7301 11.2366 63.185 11.1334L62.8132 13.0986ZM65.3883 12.2223C65.6214 12.4748 66 12.9349 66.3517 13.4082C66.7262 13.9122 66.9788 14.3109 67.045 14.4733L68.8972 13.7187C68.7213 13.2871 68.314 12.6958 67.957 12.2153C67.5771 11.7041 67.1528 11.1852 66.8579 10.8657L65.3883 12.2223ZM67.0398 14.4604C67.2926 15.1062 67.2157 15.4119 67.1698 15.4961C67.1598 15.5145 67.058 15.714 66.4091 15.714V17.714C67.4542 17.714 68.4304 17.3635 68.9264 16.4524C69.3865 15.6071 69.2436 14.6038 68.9023 13.7316L67.0398 14.4604ZM66.4091 15.714C63.9058 15.714 61.7746 14.9464 59.6331 13.172L58.3571 14.712C60.8356 16.7656 63.4124 17.714 66.4091 17.714V15.714ZM59.995 13.9295C59.9851 13.1345 60.0108 12.2358 59.9862 11.565C59.9606 10.87 59.8817 10.1189 59.5549 9.48168L57.7753 10.3943C57.8885 10.6151 57.9636 10.986 57.9875 11.6385C58.0124 12.3152 57.9831 12.9895 57.9952 13.9545L59.995 13.9295ZM59.5572 9.48616C59.2284 8.83694 58.706 8.3958 58.0813 8.21694C57.4758 8.04359 56.8586 8.14047 56.3537 8.3986C55.3273 8.92328 54.6325 10.2011 55.2386 11.6093L57.0756 10.8187C56.9886 10.6164 57.0115 10.4892 57.0416 10.4138C57.078 10.3223 57.156 10.2346 57.264 10.1794C57.3723 10.124 57.4687 10.1219 57.5308 10.1397C57.5736 10.1519 57.6728 10.1921 57.773 10.3898L59.5572 9.48616ZM55.2379 11.6079C55.6558 12.5828 56.1919 13.1027 56.978 13.867L58.3722 12.433C57.5743 11.6573 57.3184 11.3852 57.0762 10.8201L55.2379 11.6079ZM56.9912 13.8795C57.3582 14.2237 57.7226 14.5423 58.0542 14.8297L59.364 13.3183C59.0356 13.0337 58.696 12.7363 58.359 12.4205L56.9912 13.8795ZM57.7091 14.074C57.7091 15.0974 57.4866 15.3849 57.3714 15.4821C57.2129 15.6157 56.8696 15.736 56.0031 15.736V17.736C56.8966 17.736 57.9063 17.6473 58.6608 17.0109C59.4586 16.3381 59.7091 15.2946 59.7091 14.074H57.7091ZM56.0031 15.736C55.0583 15.736 54.7833 15.5617 54.6797 15.4489C54.5518 15.3097 54.3851 14.9488 54.3851 13.898H52.3851C52.3851 15.0032 52.5263 16.0613 53.207 16.8021C53.9119 17.5693 54.9459 17.736 56.0031 17.736V15.736ZM54.3851 13.898V6.638H52.3851V13.898H54.3851ZM54.385 6.65179C54.4048 5.2138 54.7781 4.31749 55.3392 3.77144C55.9029 3.22298 56.8243 2.864 58.2911 2.864V0.863999C56.5239 0.863999 55.0143 1.29702 53.9445 2.33806C52.8721 3.38151 52.4094 4.87219 52.3852 6.62421L54.385 6.65179ZM58.2911 2.864H63.6371V0.863999H58.2911V2.864ZM57.3226 10.7204C57.2932 10.6497 57.287 10.6009 57.2865 10.5727C57.2859 10.5445 57.2907 10.5246 57.2966 10.5098C57.3092 10.4775 57.3384 10.4425 57.3815 10.4204C57.4246 10.3982 57.4465 10.4058 57.4422 10.4045C57.4396 10.4038 57.4434 10.4038 57.4546 10.4134C57.4663 10.4236 57.4963 10.4535 57.5315 10.5229L59.3147 9.61713C59.0276 9.05196 58.5699 8.65273 58.0104 8.48695C57.4678 8.32618 56.9163 8.41078 56.4672 8.6416C55.5493 9.1134 54.963 10.2535 55.4756 11.4876L57.3226 10.7204ZM57.5236 10.5069C57.6143 10.6936 57.6832 11.0318 57.7071 11.6307C57.7309 12.2244 57.7091 12.8838 57.7091 13.722H59.7091C59.7091 12.9762 59.7313 12.1946 59.7055 11.5508C59.68 10.9122 59.6059 10.2164 59.3226 9.6331L57.5236 10.5069ZM59.3866 12.9865L58.5506 12.2165L57.1956 13.6875L58.0316 14.4575L59.3866 12.9865ZM58.5506 12.2165C57.7586 11.487 57.5179 11.1552 57.3116 10.6949L55.4866 11.5131C55.8523 12.3288 56.3156 12.877 57.1956 13.6875L58.5506 12.2165ZM63.2075 10.8656C63.1861 10.862 63.1721 10.8577 63.1641 10.8547C63.1562 10.8517 63.1527 10.8495 63.1523 10.8493C63.1519 10.849 63.1529 10.8497 63.1546 10.8513C63.1563 10.853 63.1576 10.8546 63.1584 10.8558C63.1609 10.8594 63.1506 10.8442 63.1548 10.8119C63.1566 10.7982 63.1604 10.788 63.1635 10.782C63.165 10.7792 63.1661 10.7776 63.1667 10.777C63.1669 10.7766 63.1671 10.7765 63.1672 10.7764C63.1672 10.7763 63.1673 10.7763 63.1673 10.7763C63.1673 10.7763 63.1675 10.7761 63.1678 10.7759C63.1681 10.7757 63.1688 10.7753 63.1699 10.7746C63.172 10.7735 63.1771 10.771 63.1862 10.7683C63.2035 10.763 63.2458 10.7537 63.3218 10.7593L63.4684 8.76469C62.8621 8.72011 62.3057 8.88731 61.8794 9.24614C61.4641 9.59566 61.2335 10.0758 61.1714 10.5546C61.0464 11.5178 61.6123 12.6273 62.8787 12.8384L63.2075 10.8656ZM63.298 10.7573C63.5253 10.7794 63.8357 10.8975 64.2049 11.1398C64.5641 11.3755 64.9172 11.6882 65.2182 12.0087L66.6759 10.6393C66.295 10.2338 65.8231 9.80953 65.3023 9.4677C64.7915 9.13254 64.1669 8.83255 63.4922 8.76672L63.298 10.7573ZM65.5392 10.411C65.0918 10.6109 64.6179 10.7569 64.1906 10.8355C63.7466 10.9171 63.4266 10.9123 63.2568 10.8751L62.8294 12.8289C63.3636 12.9457 63.9786 12.9079 64.5521 12.8025C65.1423 12.6941 65.7684 12.4991 66.355 12.237L65.5392 10.411ZM80.9073 6.484L80.1673 7.15667L81.9073 9.07061V6.484H80.9073ZM77.3873 12.182L78.1507 11.5361L76.3873 9.45205V12.182H77.3873ZM75.0993 9.256L75.9202 8.68492L75.9161 8.67906L75.0993 9.256ZM77.1233 11.852H78.1233V11.4867L77.8878 11.2074L77.1233 11.852ZM80.9073 6.902H81.9073V6.5272L81.6609 6.24474L80.9073 6.902ZM83.1953 9.344L84.0256 8.78668L84.0209 8.77977L84.0162 8.77293L83.1953 9.344ZM81.1713 6.814H80.1713V7.19056L80.4196 7.47359L81.1713 6.814ZM77.3873 11.764H76.3873V12.1303L76.6239 12.4099L77.3873 11.764ZM81.1713 7.232L81.9196 6.56869L80.1713 4.5962V7.232H81.1713ZM82.9533 9.498L83.7841 8.94154L83.7693 8.91936L83.7533 8.898L82.9533 9.498ZM75.3413 9.102L74.5235 9.67749L74.5322 9.68988L74.5413 9.702L75.3413 9.102ZM77.1233 11.434L76.3537 12.0726L78.1233 14.2051V11.434H77.1233ZM84.2513 18C85.5054 18 86.5919 17.7023 87.2338 16.6964C87.5221 16.2446 87.6669 15.725 87.746 15.1999C87.8254 14.6734 87.8473 14.0779 87.8473 13.436H85.8473C85.8473 14.0481 85.8252 14.5251 85.7684 14.9019C85.7114 15.2802 85.628 15.4949 85.5478 15.6206C85.4526 15.7697 85.2411 16 84.2513 16V18ZM87.8473 13.436V4.02H85.8473V13.436H87.8473ZM87.8473 4.02C87.8473 2.99657 87.4897 2.08244 86.7114 1.44878C85.9657 0.841626 84.9652 0.599999 83.8773 0.599999V2.6C84.7033 2.6 85.1878 2.78737 85.4486 2.99971C85.6769 3.18556 85.8473 3.48143 85.8473 4.02H87.8473ZM83.8773 0.599999C82.7855 0.599999 81.7806 0.807498 81.0331 1.39302C80.2386 2.0154 79.9073 2.92499 79.9073 3.932H81.9073C81.9073 3.37701 82.071 3.1206 82.2664 2.96748C82.5089 2.7775 82.989 2.6 83.8773 2.6V0.599999ZM79.9073 3.932V6.484H81.9073V3.932H79.9073ZM81.6472 5.81133C80.7577 4.83289 79.5443 3.56542 78.2639 2.53651C77.6233 2.02172 76.9436 1.54827 76.2596 1.19983C75.5842 0.85576 74.8397 0.599999 74.0873 0.599999V2.6C74.4018 2.6 74.8234 2.71274 75.3518 2.98192C75.8716 3.24673 76.4334 3.63128 77.0111 4.09549C78.1672 5.02457 79.2968 6.19911 80.1673 7.15667L81.6472 5.81133ZM74.0873 0.599999C73.3624 0.599999 72.7055 0.710183 72.1472 0.999544C71.5644 1.30166 71.167 1.75865 70.9122 2.3048C70.6699 2.8243 70.5626 3.41061 70.5083 3.99482C70.4536 4.58309 70.4473 5.24358 70.4473 5.934H72.4473C72.4473 5.23842 72.4547 4.66416 72.4997 4.17992C72.5451 3.69163 72.6233 3.3677 72.7248 3.1502C72.8138 2.95935 72.9183 2.85258 73.0676 2.7752C73.2415 2.68506 73.5471 2.6 74.0873 2.6V0.599999ZM70.4473 5.934V14.668H72.4473V5.934H70.4473ZM70.4473 14.668C70.4473 15.6833 70.79 16.5956 71.6028 17.2151C72.3632 17.7946 73.3861 18 74.5053 18V16C73.5784 16 73.0723 15.8204 72.8152 15.6244C72.6105 15.4684 72.4473 15.2147 72.4473 14.668H70.4473ZM74.5053 18C75.5701 18 76.5571 17.7901 77.2914 17.1984C78.0672 16.5734 78.3873 15.6669 78.3873 14.668H76.3873C76.3873 15.2311 76.2234 15.4906 76.0366 15.6411C75.8085 15.8249 75.3545 16 74.5053 16V18ZM78.3873 14.668V12.182H76.3873V14.668H78.3873ZM76.6239 12.8279C77.6167 14.0013 78.829 15.264 80.103 16.2422C81.3434 17.1946 82.7984 18 84.2513 18V16C83.4821 16 82.4731 15.5404 81.321 14.6558C80.2025 13.797 79.0938 12.6507 78.1507 11.5361L76.6239 12.8279ZM78.3873 8.376C78.3873 7.33986 78.0474 6.47571 77.3723 5.94521C76.706 5.42166 75.871 5.3527 75.1785 5.59519C74.4843 5.8383 73.8772 6.41214 73.6631 7.23249C73.4466 8.06208 73.6727 8.96972 74.2825 9.83294L75.9161 8.67906C75.5468 8.15628 75.5694 7.84842 75.5983 7.73751C75.6297 7.61736 75.717 7.5257 75.8395 7.48281C75.9638 7.4393 76.0679 7.46384 76.1366 7.51779C76.1964 7.56479 76.3873 7.76214 76.3873 8.376H78.3873ZM74.2784 9.82706C74.6502 10.3617 75.3955 11.3542 76.3587 12.4966L77.8878 11.2074C76.959 10.1058 76.2523 9.16235 75.9202 8.68494L74.2784 9.82706ZM76.1233 11.852V14.668H78.1233V11.852H76.1233ZM76.1233 14.668C76.1233 15.1347 75.9872 15.3262 75.848 15.4356C75.6628 15.5812 75.2708 15.736 74.5053 15.736V17.736C75.4777 17.736 76.3947 17.5498 77.0841 17.0079C77.8193 16.4298 78.1233 15.5873 78.1233 14.668H76.1233ZM74.5053 15.736C73.6615 15.736 73.2165 15.5767 73.0017 15.4178C72.8447 15.3017 72.7113 15.116 72.7113 14.668H70.7113C70.7113 15.606 71.0398 16.4543 71.8124 17.0257C72.527 17.5543 73.479 17.736 74.5053 17.736V15.736ZM72.7113 14.668V5.934H70.7113V14.668H72.7113ZM72.7113 5.934C72.7113 5.19951 72.7241 4.62043 72.7712 4.15505C72.8189 3.68331 72.8956 3.4049 72.9785 3.23767C73.0452 3.103 73.1137 3.04109 73.2193 2.99192C73.3579 2.92739 73.6141 2.864 74.0873 2.864V0.863999C73.4714 0.863999 72.8862 0.940859 72.3751 1.17882C71.831 1.43216 71.4416 1.835 71.1866 2.34933C70.9477 2.8311 70.8388 3.38594 70.7813 3.9537C70.7232 4.52782 70.7113 5.19449 70.7113 5.934H72.7113ZM74.0873 2.864C74.3896 2.864 74.8113 2.98085 75.3518 3.26814C75.8811 3.54948 76.4543 3.95654 77.0399 4.44285C78.2112 5.41539 79.3418 6.62843 80.1536 7.55926L81.6609 6.24474C80.8227 5.28357 79.6104 3.97761 78.3176 2.90415C77.6713 2.36746 76.9822 1.86977 76.2905 1.50211C75.61 1.1404 74.852 0.863999 74.0873 0.863999V2.864ZM79.9073 6.902V10.224H81.9073V6.902H79.9073ZM79.9073 10.224C79.9073 10.8668 80.039 11.4118 80.2907 11.8579C80.5445 12.308 80.8896 12.6023 81.2277 12.7859C81.5569 12.9646 81.8706 13.0342 82.0853 13.0605C82.1909 13.0734 82.2904 13.078 82.3747 13.075C82.3944 13.0743 82.4305 13.0726 82.4734 13.0674C82.489 13.0655 82.5407 13.0591 82.6046 13.0428C82.6288 13.0366 82.7125 13.015 82.8105 12.9651C82.8572 12.9414 82.9611 12.8846 83.0661 12.7791C83.1712 12.6735 83.3574 12.4346 83.3575 12.0735C83.3575 11.7069 83.166 11.4638 83.0511 11.3531C82.9393 11.2454 82.8291 11.1899 82.7804 11.1672C82.6779 11.1193 82.5909 11.1005 82.5666 11.0953C82.5014 11.0813 82.4488 11.077 82.4337 11.0757C82.3913 11.0723 82.3557 11.072 82.3373 11.072V13.072C82.3326 13.072 82.307 13.072 82.2713 13.0691C82.2596 13.0682 82.2094 13.0642 82.1459 13.0505C82.1225 13.0455 82.036 13.0269 81.9339 12.9792C81.8854 12.9565 81.7753 12.9011 81.6636 12.7936C81.5488 12.683 81.3574 12.4399 81.3575 12.0734C81.3575 11.7125 81.5436 11.4736 81.6486 11.3682C81.7536 11.2627 81.8573 11.2061 81.9038 11.1824C82.0014 11.1328 82.0846 11.1114 82.1079 11.1054C82.1702 11.0895 82.2196 11.0835 82.2321 11.082C82.2687 11.0775 82.2956 11.0765 82.3033 11.0762C82.3394 11.075 82.3461 11.0775 82.328 11.0753C82.2952 11.0713 82.2376 11.0584 82.1819 11.0281C82.135 11.0027 82.0813 10.9615 82.0326 10.8753C81.9818 10.7852 81.9073 10.5932 81.9073 10.224H79.9073ZM82.3373 13.072C83.2096 13.072 84.0706 12.5948 84.4677 11.726C84.8746 10.836 84.6937 9.78211 84.0256 8.78668L82.365 9.90132C82.7748 10.5119 82.6819 10.822 82.6488 10.8945C82.606 10.9882 82.4989 11.072 82.3373 11.072V13.072ZM84.0162 8.77293C83.6389 8.23064 82.8888 7.25505 81.9229 6.15441L80.4196 7.47359C81.3458 8.52895 82.0476 9.44536 82.3744 9.91506L84.0162 8.77293ZM82.1713 6.814V3.932H80.1713V6.814H82.1713ZM82.1713 3.932C82.1713 3.44376 82.3079 3.2645 82.4391 3.16408C82.6271 3.02016 83.0385 2.864 83.8773 2.864V0.863999C82.8681 0.863999 81.9264 1.03784 81.2234 1.57592C80.4636 2.1575 80.1713 3.01224 80.1713 3.932H82.1713ZM83.8773 2.864C84.301 2.864 84.7784 2.93511 85.1148 3.12254C85.374 3.26701 85.5833 3.48469 85.5833 4.02H87.5833C87.5833 2.70731 86.9345 1.84699 86.0883 1.37546C85.3191 0.946894 84.4436 0.863999 83.8773 0.863999V2.864ZM85.5833 4.02V13.436H87.5833V4.02H85.5833ZM85.5833 13.436C85.5833 14.0503 85.5624 14.5119 85.5109 14.8655C85.4589 15.2219 85.3853 15.3959 85.3298 15.4812C85.2873 15.5465 85.1697 15.736 84.2513 15.736V17.736C85.3349 17.736 86.3832 17.5295 87.0063 16.5718C87.2835 16.1456 87.4175 15.6513 87.49 15.1539C87.5629 14.6536 87.5833 14.0757 87.5833 13.436H85.5833ZM84.2513 15.736C83.5114 15.736 82.5104 15.2573 81.3441 14.3264C80.2179 13.4276 79.1 12.24 78.1507 11.1181L76.6239 12.4099C77.6106 13.576 78.8246 14.8744 80.0964 15.8896C81.3282 16.8727 82.7911 17.736 84.2513 17.736V15.736ZM78.3873 11.764V8.376H76.3873V11.764H78.3873ZM80.4229 7.89531C81.2452 8.82306 81.8009 9.62815 82.1533 10.098L83.7533 8.898C83.4457 8.48785 82.8133 7.57694 81.9196 6.56869L80.4229 7.89531ZM82.1224 10.0545C82.2705 10.2755 82.3379 10.4458 82.3663 10.5621C82.3941 10.6762 82.3847 10.738 82.3796 10.7594C82.3768 10.7711 82.3738 10.7772 82.3726 10.7794C82.3713 10.7818 82.3704 10.7828 82.37 10.7833C82.3689 10.7844 82.3651 10.7878 82.3568 10.7905C82.3394 10.7962 82.3266 10.793 82.313 10.7817C82.3036 10.7739 82.272 10.7448 82.24 10.666C82.207 10.5848 82.1713 10.4445 82.1713 10.224H80.1713C80.1713 11.0934 80.4587 11.8435 81.0381 12.3228C81.6095 12.7955 82.3434 12.8968 82.9722 12.6935C83.6076 12.488 84.1477 11.9673 84.3251 11.2231C84.5007 10.4865 84.2877 9.69336 83.7841 8.94154L82.1224 10.0545ZM82.1713 10.224V7.232H80.1713V10.224H82.1713ZM76.1591 8.52651C76.007 8.31039 75.9365 8.14095 75.906 8.02297C75.8761 7.90712 75.8836 7.83821 75.8906 7.80694C75.8975 7.77556 75.9084 7.76046 75.9153 7.75275C75.9238 7.74325 75.9344 7.73636 75.9451 7.73248C75.9503 7.73061 75.9546 7.72978 75.9577 7.72947C75.9592 7.72932 75.9603 7.72931 75.961 7.72933C75.9617 7.72935 75.962 7.7294 75.9621 7.7294C75.9621 7.7294 75.9618 7.72937 75.9615 7.72926C75.9611 7.72916 75.9609 7.72905 75.9608 7.729C75.9602 7.72873 75.9624 7.72954 75.9673 7.73364C75.9747 7.73991 76.0103 7.77221 76.0469 7.86569C76.0845 7.96182 76.1233 8.12434 76.1233 8.376H78.1233C78.1233 7.47599 77.8432 6.69646 77.2522 6.20098C76.6602 5.70473 75.9008 5.62191 75.2654 5.85152C74.6292 6.08142 74.104 6.62639 73.9381 7.37343C73.772 8.12144 73.993 8.92371 74.5235 9.67749L76.1591 8.52651ZM76.1233 8.376V11.434H78.1233V8.376H76.1233ZM77.8928 10.7954C77.0556 9.78641 76.4964 8.97553 76.1413 8.502L74.5413 9.702C74.8461 10.1085 75.475 11.0136 76.3537 12.0726L77.8928 10.7954ZM95.6474 14.294L96.2758 13.5161L94.7432 12.2782L94.6486 14.246L95.6474 14.294ZM104.887 14.008L105.823 13.6555L105.819 13.6431L105.814 13.6307L104.887 14.008ZM103.017 11.412L102.527 10.5404L101.475 11.132L102.252 12.0556L103.017 11.412ZM104.953 8.838L105.931 9.04885L105.933 9.04009L104.953 8.838ZM104.953 4.9L105.933 4.69789L105.93 4.68514L104.953 4.9ZM89.7734 6.638L88.7734 6.62493V6.638H89.7734ZM104.689 4.944L105.668 4.73555L105.665 4.72374L104.689 4.944ZM104.689 8.794L105.665 9.01305L105.667 9.00243L104.689 8.794ZM102.841 11.192L102.103 11.8668L102.627 12.4396L103.312 12.0744L102.841 11.192ZM100.069 9.498L99.9723 10.4933L99.9869 10.4947L100.001 10.4957L100.069 9.498ZM99.6514 12.116L99.8373 11.1334L99.8287 11.1318L99.82 11.1303L99.6514 12.116ZM102.775 11.544L103.51 10.8657L103.005 10.3184L102.336 10.6458L102.775 11.544ZM104.623 14.096L105.555 13.7316L105.55 13.7187L104.623 14.096ZM95.6474 13.942L94.6475 13.9545L94.6533 14.4169L95.0094 14.712L95.6474 13.942ZM95.3174 9.938L94.4253 10.3898L94.4276 10.3943L95.3174 9.938ZM92.8094 11.214L93.7286 10.8201L93.728 10.8187L92.8094 11.214ZM94.3274 13.15L93.6304 13.867L93.6369 13.8733L93.6435 13.8795L94.3274 13.15ZM95.3614 14.074H96.3614V13.6174L96.0164 13.3183L95.3614 14.074ZM90.0374 6.638L89.0374 6.62421V6.638H90.0374ZM93.0514 11.104L92.1279 11.4876L92.1333 11.5004L92.1389 11.5131L93.0514 11.104ZM95.0754 10.07L95.9749 9.6331L95.9711 9.62508L95.967 9.61713L95.0754 10.07ZM95.3614 13.722L94.684 14.4575L96.3614 16.0026V13.722H95.3614ZM94.5254 12.952L95.2029 12.2165L94.5254 12.952ZM99.6954 11.852L99.9091 10.8751L99.8846 10.8697L99.8598 10.8656L99.6954 11.852ZM100.047 9.762L100.145 8.76672L100.133 8.76557L100.121 8.76469L100.047 9.762ZM102.599 11.324L103.007 12.237L104.291 11.6637L103.328 10.6393L102.599 11.324ZM92.6554 18C93.5957 18 94.6249 17.9091 95.4162 17.295C96.2592 16.641 96.5856 15.6042 96.6463 14.342L94.6486 14.246C94.5993 15.2718 94.3537 15.588 94.1901 15.715C93.975 15.8819 93.5632 16 92.6554 16V18ZM95.0191 15.0719C97.4745 17.0551 100.07 18 103.061 18V16C100.553 16 98.3964 15.2289 96.2758 13.5161L95.0191 15.0719ZM103.061 18C104.223 18 105.249 17.5825 105.786 16.6306C106.293 15.7324 106.195 14.6437 105.823 13.6555L103.952 14.3605C104.217 15.0663 104.142 15.4736 104.044 15.6479C103.976 15.7685 103.769 16 103.061 16V18ZM105.814 13.6307C105.641 13.2068 105.308 12.712 104.971 12.2557C104.617 11.7773 104.195 11.2584 103.783 10.7684L102.252 12.0556C102.654 12.5336 103.046 13.0157 103.363 13.4448C103.696 13.896 103.892 14.2152 103.961 14.3853L105.814 13.6307ZM103.508 12.2836C104.803 11.5551 105.626 10.4621 105.931 9.04884L103.976 8.62716C103.797 9.45788 103.344 10.0809 102.527 10.5404L103.508 12.2836ZM105.933 9.04009C106.246 7.52077 106.246 6.21723 105.933 4.69791L103.974 5.10209C104.233 6.35477 104.233 7.38323 103.974 8.63591L105.933 9.04009ZM105.93 4.68514C105.645 3.3878 105.016 2.32723 103.999 1.60835C102.999 0.901793 101.73 0.599999 100.289 0.599999V2.6C101.467 2.6 102.288 2.84821 102.845 3.24165C103.384 3.62277 103.778 4.2122 103.977 5.11486L105.93 4.68514ZM100.289 0.599999H94.9434V2.6H100.289V0.599999ZM94.9434 0.599999C93.0881 0.599999 91.5122 1.05513 90.3983 2.14055C89.282 3.22826 88.7976 4.78506 88.7735 6.62493L90.7734 6.65107C90.7933 5.12494 91.1888 4.16273 91.7941 3.57295C92.4017 2.98087 93.3888 2.6 94.9434 2.6V0.599999ZM88.7734 6.638V13.898H90.7734V6.638H88.7734ZM88.7734 13.898C88.7734 15.0858 88.9423 16.1984 89.6602 16.9823C90.4012 17.7915 91.4884 18 92.6554 18V16C91.6445 16 91.2907 15.8015 91.1352 15.6317C90.9565 15.4366 90.7734 14.9981 90.7734 13.898H88.7734ZM100.289 2.864C101.403 2.864 102.163 3.09639 102.673 3.45482C103.166 3.8009 103.527 4.33632 103.714 5.16426L105.665 4.72374C105.39 3.50568 104.794 2.5011 103.824 1.81867C102.87 1.14861 101.662 0.863999 100.289 0.863999V2.864ZM103.711 5.15243C103.968 6.35702 103.968 7.38098 103.711 8.58557L105.667 9.00243C105.983 7.52302 105.983 6.21498 105.667 4.73556L103.711 5.15243ZM103.714 8.57496C103.538 9.35912 103.113 9.9139 102.371 10.3096L103.312 12.0744C104.55 11.4141 105.357 10.3849 105.665 9.01304L103.714 8.57496ZM103.579 10.5172C103.183 10.0832 102.67 9.61859 102.105 9.24604C101.555 8.88351 100.867 8.55009 100.137 8.50032L100.001 10.4957C100.239 10.5119 100.586 10.6405 101.004 10.916C101.407 11.1814 101.796 11.5308 102.103 11.8668L103.579 10.5172ZM100.167 8.50273C99.4691 8.43469 98.8396 8.62585 98.3627 9.02862C97.8998 9.41959 97.6402 9.95942 97.5662 10.4977C97.4174 11.5815 98.0286 12.8529 99.4828 13.1017L99.82 11.1303C99.6648 11.1038 99.6145 11.0443 99.592 11.0102C99.5584 10.9594 99.5334 10.8736 99.5476 10.7698C99.5617 10.6673 99.6073 10.5953 99.6532 10.5566C99.6851 10.5296 99.7677 10.4733 99.9723 10.4933L100.167 8.50273ZM99.4655 13.0986C100.548 13.3034 102.046 13.0141 103.215 12.4422L102.336 10.6458C101.437 11.0859 100.382 11.2366 99.8373 11.1334L99.4655 13.0986ZM102.041 12.2223C102.274 12.4748 102.652 12.9349 103.004 13.4082C103.378 13.9122 103.631 14.3109 103.697 14.4733L105.55 13.7187C105.374 13.2871 104.966 12.6958 104.609 12.2153C104.229 11.7041 103.805 11.1852 103.51 10.8657L102.041 12.2223ZM103.692 14.4604C103.945 15.1062 103.868 15.4119 103.822 15.4961C103.812 15.5145 103.71 15.714 103.061 15.714V17.714C104.107 17.714 105.083 17.3635 105.579 16.4524C106.039 15.6071 105.896 14.6038 105.555 13.7316L103.692 14.4604ZM103.061 15.714C100.558 15.714 98.427 14.9464 96.2855 13.172L95.0094 14.712C97.4879 16.7656 100.065 17.714 103.061 17.714V15.714ZM96.6474 13.9295C96.6374 13.1345 96.6632 12.2358 96.6385 11.565C96.613 10.87 96.534 10.1189 96.2073 9.48168L94.4276 10.3943C94.5409 10.6151 94.6159 10.986 94.6399 11.6385C94.6647 12.3152 94.6355 12.9895 94.6475 13.9545L96.6474 13.9295ZM96.2095 9.48616C95.8807 8.83694 95.3584 8.3958 94.7337 8.21694C94.1282 8.04359 93.5109 8.14047 93.006 8.3986C91.9797 8.92328 91.2848 10.2011 91.8909 11.6093L93.728 10.8187C93.6409 10.6164 93.6638 10.4892 93.6939 10.4138C93.7304 10.3223 93.8083 10.2346 93.9164 10.1794C94.0247 10.124 94.1211 10.1219 94.1832 10.1397C94.226 10.1519 94.3252 10.1921 94.4253 10.3898L96.2095 9.48616ZM91.8903 11.6079C92.3081 12.5828 92.8442 13.1027 93.6304 13.867L95.0245 12.433C94.2266 11.6573 93.9708 11.3852 93.7286 10.8201L91.8903 11.6079ZM93.6435 13.8795C94.0106 14.2237 94.375 14.5423 94.7065 14.8297L96.0164 13.3183C95.6879 13.0337 95.3483 12.7363 95.0114 12.4205L93.6435 13.8795ZM94.3614 14.074C94.3614 15.0974 94.139 15.3849 94.0237 15.4821C93.8652 15.6157 93.5219 15.736 92.6554 15.736V17.736C93.5489 17.736 94.5586 17.6473 95.3131 17.0109C96.1109 16.3381 96.3614 15.2946 96.3614 14.074H94.3614ZM92.6554 15.736C91.7107 15.736 91.4356 15.5617 91.3321 15.4489C91.2042 15.3097 91.0374 14.9488 91.0374 13.898H89.0374C89.0374 15.0032 89.1787 16.0613 89.8593 16.8021C90.5642 17.5693 91.5982 17.736 92.6554 17.736V15.736ZM91.0374 13.898V6.638H89.0374V13.898H91.0374ZM91.0373 6.65179C91.0572 5.2138 91.4304 4.31749 91.9916 3.77144C92.5552 3.22298 93.4766 2.864 94.9434 2.864V0.863999C93.1763 0.863999 91.6667 1.29702 90.5968 2.33806C89.5245 3.38151 89.0617 4.87219 89.0375 6.62421L91.0373 6.65179ZM94.9434 2.864H100.289V0.863999H94.9434V2.864ZM93.9749 10.7204C93.9455 10.6497 93.9393 10.6009 93.9388 10.5727C93.9382 10.5445 93.9431 10.5246 93.9489 10.5098C93.9616 10.4775 93.9907 10.4425 94.0338 10.4204C94.077 10.3982 94.0988 10.4058 94.0946 10.4045C94.092 10.4038 94.0958 10.4038 94.1069 10.4134C94.1186 10.4236 94.1486 10.4535 94.1839 10.5229L95.967 9.61713C95.6799 9.05196 95.2223 8.65273 94.6627 8.48695C94.1202 8.32618 93.5686 8.41078 93.1196 8.6416C92.2016 9.1134 91.6153 10.2535 92.1279 11.4876L93.9749 10.7204ZM94.1759 10.5069C94.2666 10.6936 94.3355 11.0318 94.3595 11.6307C94.3832 12.2244 94.3614 12.8838 94.3614 13.722H96.3614C96.3614 12.9762 96.3836 12.1946 96.3579 11.5508C96.3323 10.9122 96.2583 10.2164 95.9749 9.6331L94.1759 10.5069ZM96.0389 12.9865L95.2029 12.2165L93.848 13.6875L94.684 14.4575L96.0389 12.9865ZM95.2029 12.2165C94.4109 11.487 94.1702 11.1552 93.9639 10.6949L92.1389 11.5131C92.5046 12.3288 92.968 12.877 93.848 13.6875L95.2029 12.2165ZM99.8598 10.8656C99.8384 10.862 99.8244 10.8577 99.8164 10.8547C99.8085 10.8517 99.805 10.8495 99.8046 10.8493C99.8042 10.849 99.8053 10.8497 99.807 10.8513C99.8086 10.853 99.8099 10.8546 99.8107 10.8558C99.8132 10.8594 99.8029 10.8442 99.8071 10.8119C99.8089 10.7982 99.8127 10.788 99.8159 10.782C99.8173 10.7792 99.8185 10.7776 99.819 10.777C99.8193 10.7766 99.8195 10.7765 99.8195 10.7764C99.8196 10.7763 99.8196 10.7763 99.8196 10.7763C99.8197 10.7763 99.8198 10.7761 99.8201 10.7759C99.8205 10.7757 99.8212 10.7753 99.8223 10.7746C99.8244 10.7735 99.8294 10.771 99.8385 10.7683C99.8558 10.763 99.8981 10.7537 99.9741 10.7593L100.121 8.76469C99.5145 8.72011 98.9581 8.88731 98.5317 9.24614C98.1165 9.59566 97.8859 10.0758 97.8237 10.5546C97.6988 11.5178 98.2647 12.6273 99.531 12.8384L99.8598 10.8656ZM99.9503 10.7573C100.178 10.7794 100.488 10.8975 100.857 11.1398C101.216 11.3755 101.57 11.6882 101.871 12.0087L103.328 10.6393C102.947 10.2338 102.475 9.80953 101.955 9.4677C101.444 9.13254 100.819 8.83255 100.145 8.76672L99.9503 10.7573ZM102.191 10.411C101.744 10.6109 101.27 10.7569 100.843 10.8355C100.399 10.9171 100.079 10.9123 99.9091 10.8751L99.4817 12.8289C100.016 12.9457 100.631 12.9079 101.204 12.8025C101.795 12.6941 102.421 12.4991 103.007 12.237L102.191 10.411Z" fill="#1273EB"/>
</svg>
