<svg width="24" height="24" viewBox="0 0 24 24" fill="none" xmlns="http://www.w3.org/2000/svg">
<path d="M12 1C5.92772 1 1 5.92772 1 12C1 18.0723 5.92772 23 12 23C18.0723 23 23 18.0723 23 12C23 5.92772 18.0723 1 12 1ZM12 6C13.1077 6 14 6.89228 14 8C14 9.10772 13.1077 10 12 10C10.8923 10 10 9.10772 10 8C10 6.89228 10.8923 6 12 6ZM12 18.2C9.99161 18.2 8.199 17.2407 7.06447 15.7516C7.11605 15.6482 7.20491 15.5274 7.35271 15.3889C7.6417 15.1181 8.08525 14.8513 8.64711 14.6163C9.77493 14.1446 11.1365 13.9 12 13.9C12.8582 13.9 14.2199 14.1445 15.3495 14.6164C15.9122 14.8516 16.3568 15.1185 16.6466 15.3895C16.7946 15.528 16.8836 15.6487 16.9353 15.7519C15.8008 17.2408 14.0083 18.2 12 18.2Z" stroke="#A4A6B3" stroke-width="2"/>
</svg>
