<svg width="20" height="20" viewBox="0 0 20 20" fill="none" xmlns="http://www.w3.org/2000/svg">
<g clip-path="url(#clip0)">
<path d="M19.1663 2.49996C18.3683 3.06285 17.4848 3.49338 16.5497 3.77496C16.0478 3.19788 15.3808 2.78887 14.6389 2.60323C13.897 2.41759 13.1159 2.46429 12.4014 2.737C11.6869 3.00972 11.0734 3.49529 10.6438 4.12805C10.2143 4.76082 9.98942 5.51024 9.99967 6.27496V7.10829C8.5352 7.14626 7.08407 6.82147 5.77551 6.16283C4.46696 5.50419 3.34161 4.53215 2.49967 3.33329C2.49967 3.33329 -0.833659 10.8333 6.66634 14.1666C4.95011 15.3316 2.90564 15.9157 0.833008 15.8333C8.33301 20 17.4997 15.8333 17.4997 6.24996C17.4989 6.01783 17.4766 5.78629 17.433 5.55829C18.2835 4.71953 18.8837 3.66055 19.1663 2.49996V2.49996Z" stroke="white" stroke-width="2" stroke-linecap="round" stroke-linejoin="round"/>
</g>
<defs>
<clipPath id="clip0">
<rect width="20" height="20" fill="white"/>
</clipPath>
</defs>
</svg>
