<svg width="30" height="30" viewBox="0 0 30 30" fill="none" xmlns="http://www.w3.org/2000/svg">
<path fill-rule="evenodd" clip-rule="evenodd" d="M20.3333 8.33333C20.3333 11.2789 17.9455 13.6667 15 13.6667C12.0545 13.6667 9.66667 11.2789 9.66667 8.33333C9.66667 5.38781 12.0545 3 15 3C17.9455 3 20.3333 5.38781 20.3333 8.33333ZM17.6667 8.33333C17.6667 9.80609 16.4728 11 15 11C13.5272 11 12.3333 9.80609 12.3333 8.33333C12.3333 6.86057 13.5272 5.66667 15 5.66667C16.4728 5.66667 17.6667 6.86057 17.6667 8.33333Z" fill="#9FA2B4"/>
<path d="M20.3333 19C20.3333 18.2636 19.7364 17.6667 19 17.6667H11C10.2636 17.6667 9.66667 18.2636 9.66667 19V27H7V19C7 16.7909 8.79086 15 11 15H19C21.2091 15 23 16.7909 23 19V27H20.3333V19Z" fill="#9FA2B4"/>
</svg>
